<svg width="133" height="18" viewBox="0 0 133 18" fill="none" xmlns="http://www.w3.org/2000/svg">
<g clip-path="url(#clip0_1_87)">
<g clip-path="url(#clip1_1_87)">
<g clip-path="url(#clip2_1_87)">
<path d="M4.23517 0.450073V16.5722H0.826538V0.450073H4.23517ZM10.1157 0.450073V16.5722H6.7071V0.450073H10.1157ZM12.5877 16.5722V0.450073H23.4512V3.26042H15.9963V7.10203H22.8923V9.91238H15.9963V13.7618H23.4827V16.5722H12.5877ZM29.1192 0.450073V16.5722H25.7657V0.450073H29.1192ZM36.9836 16.8084C35.7398 16.8084 34.6692 16.5565 33.7718 16.0527C32.8796 15.5436 32.1921 14.8246 31.7092 13.8956C31.2265 12.9616 30.985 11.8568 30.985 10.5815C30.985 9.33771 31.2265 8.24611 31.7092 7.30671C32.1921 6.3673 32.8717 5.63518 33.7482 5.11038C34.6299 4.58557 35.6637 4.32317 36.8498 4.32317C37.6474 4.32317 38.39 4.45174 39.0776 4.7089C39.7703 4.96081 40.3739 5.3413 40.8882 5.85036C41.4077 6.35942 41.8119 6.99969 42.1005 7.77116C42.3891 8.53738 42.5334 9.43481 42.5334 10.4634V11.3845H32.3233V9.30622H39.3767C39.3767 8.82341 39.2717 8.39569 39.0618 8.02307C38.8519 7.65045 38.5606 7.35919 38.188 7.14926C37.8206 6.93409 37.3929 6.8265 36.9049 6.8265C36.3958 6.8265 35.9444 6.94458 35.5508 7.18075C35.1625 7.41166 34.8581 7.72393 34.6377 8.11753C34.4172 8.50589 34.3044 8.93886 34.2991 9.41644V11.3924C34.2991 11.9906 34.4094 12.5075 34.6299 12.9431C34.8555 13.3787 35.173 13.7147 35.5824 13.9508C35.9917 14.1869 36.4771 14.305 37.0387 14.305C37.4113 14.305 37.7524 14.2525 38.0621 14.1476C38.3717 14.0426 38.6367 13.8852 38.8572 13.6753C39.0776 13.4654 39.2455 13.2082 39.361 12.9038L42.4626 13.1085C42.3051 13.8537 41.9824 14.5044 41.4944 15.0608C41.0115 15.6118 40.387 16.0422 39.6208 16.3518C38.8598 16.6561 37.9807 16.8084 36.9836 16.8084ZM55.3375 4.48061L51.1102 16.5722H47.3316L43.1043 4.48061H46.6467L49.1579 13.132H49.2839L51.7872 4.48061H55.3375ZM61.842 16.8084C60.5982 16.8084 59.5276 16.5565 58.6302 16.0527C57.738 15.5436 57.0505 14.8246 56.5676 13.8956C56.0848 12.9616 55.8434 11.8568 55.8434 10.5815C55.8434 9.33771 56.0848 8.24611 56.5676 7.30671C57.0505 6.3673 57.7301 5.63518 58.6065 5.11038C59.4882 4.58557 60.5221 4.32317 61.7082 4.32317C62.5058 4.32317 63.2485 4.45174 63.936 4.7089C64.6287 4.96081 65.2323 5.3413 65.7466 5.85036C66.2661 6.35942 66.6702 6.99969 66.9589 7.77116C67.2476 8.53738 67.3919 9.43481 67.3919 10.4634V11.3845H57.1817V9.30622H64.2351C64.2351 8.82341 64.1301 8.39569 63.9203 8.02307C63.7103 7.65045 63.4191 7.35919 63.0464 7.14926C62.6791 6.93409 62.2513 6.8265 61.7632 6.8265C61.2542 6.8265 60.8028 6.94458 60.4093 7.18075C60.0209 7.41166 59.7165 7.72393 59.496 8.11753C59.2757 8.50589 59.1628 8.93886 59.1576 9.41644V11.3924C59.1576 11.9906 59.2678 12.5075 59.4882 12.9431C59.7139 13.3787 60.0314 13.7147 60.4407 13.9508C60.8501 14.1869 61.3356 14.305 61.8971 14.305C62.2696 14.305 62.6108 14.2525 62.9205 14.1476C63.2301 14.0426 63.4951 13.8852 63.7155 13.6753C63.936 13.4654 64.1039 13.2082 64.2193 12.9038L67.321 13.1085C67.1635 13.8537 66.8408 14.5044 66.3527 15.0608C65.8699 15.6118 65.2454 16.0422 64.4792 16.3518C63.7181 16.6561 62.8392 16.8084 61.842 16.8084ZM72.6013 9.58175V16.5722H69.2478V4.48061H72.4438V6.61396H72.5856C72.8532 5.91071 73.3019 5.35442 73.9317 4.94507C74.5615 4.53047 75.3251 4.32317 76.2225 4.32317C77.0622 4.32317 77.7943 4.50685 78.4188 4.87421C79.0433 5.24158 79.5288 5.76639 79.8751 6.44864C80.2215 7.12565 80.3948 7.93385 80.3948 8.87326V16.5722H77.0412V9.47154C77.0464 8.73156 76.8575 8.15427 76.4744 7.73968C76.0913 7.31983 75.5639 7.1099 74.8921 7.1099C74.4408 7.1099 74.0419 7.20699 73.6955 7.40117C73.3544 7.59535 73.0868 7.87875 72.8925 8.25136C72.7036 8.61873 72.6066 9.0622 72.6013 9.58175ZM82.7682 16.5722V0.450073H86.1769V13.7618H93.0886V16.5722H82.7682ZM98.3985 16.8005C97.627 16.8005 96.9395 16.6667 96.3359 16.399C95.7325 16.1261 95.2548 15.7247 94.9032 15.1946C94.5568 14.6593 94.3836 13.9928 94.3836 13.195C94.3836 12.5233 94.507 11.9592 94.7536 11.5025C95.0003 11.0459 95.3362 10.6786 95.7613 10.4005C96.1864 10.1223 96.6693 9.91238 97.2097 9.77068C97.7556 9.62898 98.3276 9.52927 98.9258 9.47154C99.6292 9.39807 100.196 9.32984 100.626 9.26687C101.057 9.19864 101.369 9.09892 101.564 8.96772C101.757 8.83653 101.855 8.64235 101.855 8.38519V8.33795C101.855 7.83938 101.697 7.45365 101.382 7.18075C101.072 6.90785 100.631 6.7714 100.059 6.7714C99.456 6.7714 98.9757 6.90523 98.6188 7.17287C98.262 7.43528 98.0258 7.76592 97.9104 8.16477L94.8088 7.91286C94.9661 7.17812 95.2758 6.5431 95.7377 6.0078C96.1995 5.46725 96.7952 5.05265 97.5246 4.764C98.2594 4.47011 99.1095 4.32317 100.075 4.32317C100.747 4.32317 101.39 4.40188 102.004 4.55932C102.624 4.71677 103.172 4.96081 103.649 5.29144C104.132 5.62207 104.513 6.04717 104.791 6.56672C105.069 7.08104 105.208 7.69769 105.208 8.41668V16.5722H102.027V14.8954H101.933C101.739 15.2733 101.479 15.6066 101.153 15.8952C100.828 16.1786 100.437 16.4016 99.9807 16.5644C99.5242 16.7217 98.9967 16.8005 98.3985 16.8005ZM99.3588 14.4861C99.8522 14.4861 100.288 14.389 100.666 14.1948C101.043 13.9954 101.34 13.7278 101.555 13.3919C101.77 13.056 101.878 12.6755 101.878 12.2504V10.9672C101.773 11.0355 101.629 11.0984 101.445 11.1562C101.266 11.2087 101.064 11.2586 100.839 11.3057C100.613 11.3477 100.388 11.3871 100.162 11.4238C99.9361 11.4553 99.7315 11.4842 99.5478 11.5105C99.1542 11.5682 98.8105 11.66 98.5165 11.786C98.2226 11.9119 97.9944 12.0825 97.8317 12.2976C97.6689 12.5075 97.5876 12.77 97.5876 13.0849C97.5876 13.5414 97.753 13.8904 98.0836 14.1318C98.4194 14.368 98.8445 14.4861 99.3588 14.4861ZM107.54 16.5722V0.450073H110.893V6.51161H110.996C111.143 6.18624 111.356 5.8556 111.634 5.51973C111.917 5.17861 112.285 4.89521 112.735 4.66954C113.193 4.43862 113.759 4.32317 114.436 4.32317C115.318 4.32317 116.131 4.55408 116.877 5.01591C117.621 5.47249 118.218 6.16262 118.663 7.08629C119.109 8.00471 119.332 9.15665 119.332 10.5421C119.332 11.8909 119.114 13.0298 118.679 13.9586C118.249 14.8823 117.661 15.5829 116.916 16.0605C116.176 16.5328 115.347 16.769 114.428 16.769C113.777 16.769 113.224 16.6614 112.767 16.4463C112.316 16.2311 111.946 15.9608 111.657 15.6354C111.369 15.3048 111.148 14.9716 110.996 14.6356H110.846V16.5722H107.54ZM110.823 10.5264C110.823 11.2454 110.922 11.8725 111.122 12.4079C111.321 12.9431 111.61 13.3604 111.987 13.6595C112.365 13.9534 112.825 14.1004 113.365 14.1004C113.911 14.1004 114.373 13.9508 114.75 13.6517C115.128 13.3473 115.414 12.9274 115.609 12.3921C115.808 11.8515 115.908 11.2296 115.908 10.5264C115.908 9.82841 115.811 9.21439 115.617 8.68432C115.423 8.15427 115.136 7.73967 114.758 7.44053C114.381 7.14139 113.916 6.99182 113.365 6.99182C112.82 6.99182 112.357 7.13615 111.979 7.42478C111.608 7.71343 111.321 8.12278 111.122 8.65284C110.922 9.1829 110.823 9.80742 110.823 10.5264ZM131.298 7.9286L128.229 8.11753C128.175 7.85513 128.063 7.61896 127.89 7.40904C127.717 7.19387 127.488 7.02331 127.205 6.89736C126.927 6.76615 126.593 6.70055 126.205 6.70055C125.685 6.70055 125.247 6.81076 124.89 7.03118C124.534 7.24635 124.355 7.535 124.355 7.89711C124.355 8.18576 124.47 8.4298 124.702 8.62923C124.933 8.82865 125.329 8.98872 125.89 9.10942L128.078 9.55026C129.254 9.79167 130.131 10.18 130.708 10.7153C131.285 11.2506 131.574 11.9539 131.574 12.825C131.574 13.6175 131.34 14.3129 130.874 14.9112C130.411 15.5095 129.776 15.9766 128.968 16.3124C128.165 16.643 127.239 16.8084 126.189 16.8084C124.589 16.8084 123.313 16.4751 122.363 15.8086C121.419 15.1368 120.865 14.2237 120.703 13.0691L124.001 12.896C124.1 13.384 124.342 13.7566 124.725 14.0137C125.108 14.2656 125.599 14.3916 126.197 14.3916C126.785 14.3916 127.257 14.2788 127.614 14.0531C127.977 13.8222 128.16 13.5257 128.165 13.1636C128.16 12.8592 128.031 12.6099 127.779 12.4157C127.527 12.2163 127.139 12.0641 126.614 11.9592L124.52 11.5419C123.34 11.3057 122.461 10.8964 121.883 10.3139C121.311 9.73133 121.025 8.98872 121.025 8.08604C121.025 7.30933 121.235 6.6402 121.655 6.07865C122.08 5.51711 122.675 5.08414 123.442 4.77974C124.213 4.47536 125.116 4.32317 126.15 4.32317C127.677 4.32317 128.878 4.64592 129.755 5.29144C130.637 5.93695 131.152 6.81601 131.298 7.9286Z" fill="#36364A" fill-opacity="0.41"/>
</g>
</g>
</g>
<defs>
<clipPath id="clip0_1_87">
<rect width="132" height="17.13" fill="white" transform="translate(0.390015 0.449951)"/>
</clipPath>
<clipPath id="clip1_1_87">
<rect width="132" height="17.13" fill="white" transform="translate(0.390015 0.449951)"/>
</clipPath>
<clipPath id="clip2_1_87">
<rect width="132" height="17.1298" fill="white" transform="translate(0.390015 0.450073)"/>
</clipPath>
</defs>
</svg>
