<svg width="106" height="25" viewBox="0 0 106 25" fill="none" xmlns="http://www.w3.org/2000/svg">
<g clip-path="url(#clip0_1_66)">
<g clip-path="url(#clip1_1_66)">
<g clip-path="url(#clip2_1_66)">
<mask id="mask0_1_66" style="mask-type:luminance" maskUnits="userSpaceOnUse" x="0" y="0" width="106" height="25">
<path d="M105.255 0.0200195H0.690002V24.02H105.255V0.0200195Z" fill="white"/>
</mask>
<g mask="url(#mask0_1_66)">
<path d="M6.63947 13.141C6.34385 13.435 5.97431 13.582 5.53087 13.582H4.01579H1.83555C1.50297 13.582 1.2443 13.4718 1.02258 13.2512C0.837815 13.0307 0.690002 12.7734 0.690002 12.4427V6.81941V1.15938C0.690002 0.828596 0.837815 0.571322 1.02258 0.350801C1.2443 0.167034 1.53993 0.0200195 1.83555 0.0200195H5.23525H8.63495C8.96753 0.0200195 9.2262 0.167034 9.44792 0.350801C9.66964 0.571322 9.7805 0.828596 9.7805 1.15938V5.56979V9.35539C9.7805 9.75968 9.63268 10.1639 9.33706 10.4212L8.00674 11.7443L6.63947 13.141Z" fill="#36364A" fill-opacity="0.41"/>
<path d="M11.5549 5.93732C11.2592 5.6433 11.1114 5.27576 11.1114 4.87147V3.32783V1.15938C11.1114 0.828596 11.2592 0.571322 11.444 0.350801C11.6657 0.167034 11.9614 0.0200195 12.257 0.0200195H17.9108H23.6016C23.9342 0.0200195 24.1929 0.167034 24.4146 0.350801C24.6363 0.571322 24.7472 0.828596 24.7472 1.15938V4.54069V7.92201C24.7472 8.25279 24.5993 8.51007 24.4146 8.73059C24.1929 8.95111 23.9342 9.06137 23.6016 9.06137H19.1672H15.3241C14.9176 9.06137 14.5112 8.91435 14.2155 8.62033L12.8852 7.2972L11.5549 5.93732Z" fill="#36364A" fill-opacity="0.41"/>
<path d="M18.8338 10.8985C19.1294 10.6045 19.4989 10.4575 19.9424 10.4575H21.4575H23.6008C23.9333 10.4575 24.192 10.6045 24.4137 10.7883C24.6355 11.0088 24.7463 11.2661 24.7463 11.5968V17.2201V22.8434C24.7463 23.1742 24.5985 23.4315 24.4137 23.652C24.192 23.8725 23.9333 23.9828 23.6008 23.9828H20.201H16.8013C16.4687 23.9828 16.2101 23.8357 15.9883 23.652C15.7666 23.4315 15.6558 23.1742 15.6558 22.8434V18.433V14.6474C15.6558 14.2431 15.8036 13.8388 16.0992 13.5815L17.4295 12.2584L18.8338 10.8985Z" fill="#36364A" fill-opacity="0.41"/>
<path d="M13.8823 18.1031C14.1779 18.3971 14.3257 18.7646 14.3257 19.2057V20.7126V22.881C14.3257 23.2118 14.1779 23.4691 13.9931 23.6896C13.7714 23.9101 13.5127 24.0204 13.1802 24.0204H7.52635H1.83555C1.50297 24.0204 1.2443 23.8734 1.02258 23.6896C0.837815 23.4691 0.690002 23.1751 0.690002 22.881V19.4997V16.1184C0.690002 15.7876 0.837815 15.5303 1.02258 15.3098C1.2443 15.0893 1.50297 14.979 1.83555 14.979H6.26994H10.0761C10.4826 14.979 10.889 15.1261 11.1477 15.4201L12.478 16.7432L13.8823 18.1031Z" fill="#36364A" fill-opacity="0.41"/>
<path d="M62.9212 18.1022C62.7734 18.2124 62.6256 18.3227 62.5147 18.3962C62.4038 18.4697 62.3299 18.5065 62.256 18.5432C62.1821 18.58 62.1082 18.6167 62.0713 18.6167C61.9973 18.6167 61.9604 18.6167 61.8495 18.6167C61.5539 18.6167 61.3322 18.4697 61.2213 18.2124C61.1105 17.9184 61.0366 17.4039 61.0366 16.632V13.067C61.0366 12.4421 60.9996 11.9276 60.9257 11.5968C60.8518 11.266 60.7409 10.9353 60.5562 10.6412C59.9649 9.72242 58.8193 9.24463 57.1565 9.24463C55.9371 9.24463 54.9393 9.46515 54.2003 9.86944C53.4612 10.2737 53.1286 10.8617 53.1286 11.5968C53.1286 11.9644 53.2395 12.2951 53.4612 12.5157C53.6829 12.7362 53.9786 12.8832 54.3111 12.8832C54.6807 12.8832 55.0132 12.7729 55.235 12.5524C55.4567 12.3319 55.6045 12.0379 55.6045 11.7071C55.6045 11.413 55.4936 11.1558 55.3089 10.972C55.1611 10.825 55.0872 10.7515 55.0872 10.7515C55.0502 10.7147 55.0502 10.7147 55.0502 10.678C55.0502 10.6045 55.0872 10.531 55.198 10.4207C55.3089 10.3472 55.4197 10.2737 55.5675 10.2002C55.7154 10.1267 55.9001 10.0899 56.0849 10.0532C56.2697 10.0164 56.4914 10.0164 56.6761 10.0164C57.6739 10.0164 58.339 10.3104 58.6715 10.8985C58.7454 11.0455 58.8193 11.1558 58.8563 11.3028C58.8933 11.4131 58.9302 11.5968 58.9672 11.7806C59.0041 11.9644 59.0041 12.1849 59.0411 12.4421C59.0411 12.7362 59.078 13.067 59.078 13.4345L57.0457 13.802L56.2327 13.949C55.8262 14.0225 55.4567 14.0961 55.198 14.1696C54.9024 14.2431 54.6437 14.3166 54.422 14.3901C54.2003 14.4636 54.0155 14.5738 53.8307 14.6841C53.646 14.7944 53.4982 14.9046 53.3503 15.0149C52.833 15.4927 52.5743 16.1542 52.5743 16.9996C52.5743 17.9184 52.833 18.6535 53.3873 19.168C53.9046 19.6826 54.6437 19.9766 55.5675 19.9766C56.2327 19.9766 56.8609 19.8296 57.4152 19.5356C57.9694 19.2415 58.5237 18.7637 59.115 18.1022C59.1889 18.3962 59.2628 18.6535 59.2997 18.8005C59.3737 18.9475 59.4476 19.0945 59.5584 19.2415C59.7062 19.4621 59.891 19.6091 60.1127 19.7193C60.3344 19.8296 60.5562 19.9031 60.8148 19.9031C61.2213 19.9031 61.5909 19.7928 61.9604 19.6091C62.3299 19.4253 62.7734 19.0578 63.2538 18.6167L62.9212 18.1022ZM59.115 13.9858V15.6764C59.115 16.4115 59.0041 16.9996 58.7824 17.3671C58.5607 17.7346 58.265 18.0287 57.8586 18.2492C57.4521 18.4697 57.0087 18.58 56.5653 18.58C55.974 18.58 55.4936 18.3962 55.1611 18.0287C54.7915 17.6611 54.6437 17.1833 54.6437 16.5953C54.6437 15.6397 55.0872 15.0149 55.9371 14.6841C56.2327 14.5738 56.6392 14.4636 57.1196 14.3533C57.5999 14.2798 58.265 14.1328 59.115 13.9858Z" fill="#36364A" fill-opacity="0.41"/>
<path d="M70.4575 18.2493C70.088 18.3964 69.7554 18.5066 69.5337 18.5434C69.3119 18.6169 69.0902 18.6169 68.9054 18.6169C68.3511 18.6169 67.9447 18.4699 67.686 18.1391C67.4273 17.8083 67.2795 17.3305 67.2795 16.7057V10.5679H70.3097V9.86954H67.2795V5.82666H66.7991L65.3949 7.2233V9.83279H62.919V10.5311H65.3949V17.404C65.3949 18.1758 65.5796 18.8006 65.9492 19.1682C66.3187 19.5725 66.873 19.7562 67.5751 19.7562C68.0555 19.7562 68.5359 19.6827 69.0163 19.499C69.4967 19.352 70.051 19.0579 70.6792 18.6904L70.4575 18.2493Z" fill="#36364A" fill-opacity="0.41"/>
<path d="M83.3555 8.1787C83.725 8.1787 84.0577 8.06844 84.3164 7.81116C84.575 7.55389 84.6858 7.25986 84.6858 6.89233C84.6858 6.52479 84.575 6.23076 84.3164 5.97349C84.0577 5.71622 83.762 5.60596 83.3924 5.60596C83.0598 5.60596 82.7274 5.71622 82.4687 5.97349C82.21 6.23076 82.0992 6.52479 82.0992 6.85557C82.0992 7.22311 82.21 7.51714 82.4687 7.77441C82.6904 8.03168 83.0229 8.1787 83.3555 8.1787Z" fill="#36364A" fill-opacity="0.41"/>
<path d="M104.16 17.1466C103.865 17.4774 103.569 17.7346 103.311 17.9552C103.052 18.1757 102.793 18.3227 102.535 18.4697C102.276 18.58 102.017 18.6902 101.721 18.727C101.426 18.7637 101.13 18.8005 100.761 18.8005C99.5415 18.8005 98.6177 18.3962 97.9895 17.5876C97.7308 17.2201 97.546 16.8158 97.4352 16.338C97.3243 15.8602 97.2873 15.2354 97.2873 14.4268H105.011C104.974 13.6918 104.899 13.067 104.826 12.6259C104.714 12.1481 104.567 11.7438 104.345 11.3395C103.975 10.678 103.421 10.1634 102.682 9.79593C101.943 9.42839 101.13 9.24463 100.207 9.24463C99.4306 9.24463 98.7285 9.35489 98.1003 9.61216C97.4721 9.86944 96.9548 10.2002 96.5113 10.6412C96.0679 11.0823 95.7353 11.6336 95.5136 12.2951C95.2919 12.9567 95.1441 13.6918 95.1441 14.4636C95.1441 15.2722 95.2549 16.0072 95.5136 16.6688C95.7353 17.3304 96.1048 17.8817 96.5113 18.3595C96.9548 18.8372 97.4721 19.168 98.1003 19.4253C98.7285 19.6826 99.4306 19.7928 100.207 19.7928C100.687 19.7928 101.093 19.7561 101.5 19.6826C101.906 19.6091 102.276 19.4621 102.609 19.2783C102.978 19.0945 103.311 18.874 103.644 18.58C103.975 18.2859 104.345 17.9552 104.678 17.5509L104.16 17.1466ZM100.096 9.90619C101.02 9.90619 101.685 10.2002 102.091 10.7882C102.497 11.3763 102.757 12.3319 102.867 13.7285H97.2504C97.3613 12.3686 97.6199 11.3763 98.0634 10.7882C98.5068 10.2002 99.2089 9.90619 100.096 9.90619Z" fill="#36364A" fill-opacity="0.41"/>
<path d="M49.6174 18.69C49.4326 18.6165 49.2848 18.5062 49.174 18.3592C49.0631 18.2122 49.0261 17.9917 48.9892 17.7344C48.9522 17.4771 48.9522 17.1096 48.9522 16.6685V4.17236L45.146 5.09119V5.78951C45.5156 5.78951 45.8481 5.82626 46.0699 5.89977C46.3285 5.97327 46.5133 6.08354 46.6242 6.23055C46.772 6.37756 46.8459 6.59808 46.9198 6.89211C46.9567 7.18614 46.9937 7.55367 46.9937 7.99471V16.6685C46.9937 17.1096 46.9937 17.4404 46.9567 17.7344C46.9198 17.9917 46.8828 18.2122 46.772 18.3592C46.6611 18.5062 46.5133 18.6165 46.3285 18.69C46.1438 18.7635 45.8851 18.8002 45.5525 18.8738L45.0352 18.9105V19.5721H50.9477V18.9105L50.4304 18.8738C50.0608 18.837 49.8022 18.7635 49.6174 18.69Z" fill="#36364A" fill-opacity="0.41"/>
<path d="M85.35 18.6913C85.1652 18.6178 85.0174 18.5075 84.9066 18.3605C84.7957 18.2135 84.7588 17.993 84.7218 17.7357C84.6848 17.4784 84.6848 17.1109 84.6848 16.6698V8.95166L80.8786 9.87049V10.5688C81.2482 10.5688 81.5808 10.6055 81.8025 10.679C82.0612 10.7525 82.2459 10.8628 82.3937 11.0098C82.5416 11.1568 82.6155 11.3773 82.6894 11.6714C82.7263 11.9654 82.7633 12.3329 82.7633 12.774V16.7066C82.7633 17.1476 82.7633 17.4784 82.7263 17.7724C82.6894 18.0297 82.6524 18.2502 82.5416 18.3972C82.4307 18.5443 82.2829 18.6545 82.0981 18.728C81.9133 18.8015 81.6547 18.8383 81.3221 18.9118L80.8047 18.9485V19.6101H86.7173V18.9485L86.1999 18.9118C85.7934 18.8383 85.5348 18.7648 85.35 18.6913Z" fill="#36364A" fill-opacity="0.41"/>
<path d="M92.7046 18.69C92.5199 18.6165 92.372 18.5062 92.2612 18.3592C92.1503 18.2122 92.1134 17.9917 92.0764 17.7344C92.0395 17.4771 92.0395 17.1096 92.0395 16.6685V4.17236L88.2702 5.12795V5.82626C88.6397 5.82626 88.9723 5.86301 89.194 5.93652C89.4527 6.01003 89.6375 6.12029 89.7853 6.2673C89.9331 6.41432 90.007 6.63484 90.0809 6.92886C90.1179 7.22289 90.1548 7.59043 90.1548 8.03147V16.7053C90.1548 17.1463 90.1548 17.4771 90.1179 17.7711C90.0809 18.0284 90.044 18.2489 89.9331 18.396C89.8223 18.543 89.6744 18.6532 89.4897 18.7267C89.3049 18.8002 89.0462 18.837 88.7136 18.9105L88.1963 18.9473V19.6088H94.1089V18.9473L93.5915 18.9105C93.185 18.837 92.9263 18.7635 92.7046 18.69Z" fill="#36364A" fill-opacity="0.41"/>
<path d="M79.2533 5.09156C78.8099 4.79754 78.2556 4.61377 77.5534 4.61377C76.5187 4.61377 75.6688 4.94455 75.0406 5.60611C74.4124 6.26767 74.1168 7.18651 74.1168 8.32587C74.1168 8.43613 74.1168 9.02418 74.1168 9.20795C74.1168 9.42847 74.1538 9.61224 74.1538 9.83276H72.1583V10.531H74.1538V16.6689C74.1538 17.1099 74.1537 17.4407 74.1168 17.7347C74.0798 17.992 74.043 18.2125 73.9321 18.3595C73.8212 18.5065 73.6734 18.6168 73.4887 18.6903C73.3039 18.7638 73.0452 18.8006 72.7126 18.8741L72.1953 18.9108V19.5724H78.2555V18.9108L77.5904 18.8741C77.2578 18.8006 76.9991 18.7638 76.8144 18.6903C76.6296 18.6168 76.4818 18.5065 76.3709 18.3595C76.2601 18.2125 76.2231 17.992 76.1862 17.7347C76.1492 17.4774 76.1492 17.1099 76.1492 16.6689V10.5678H78.8838V9.86951H76.1492C76.1123 9.796 75.8166 8.91392 75.6688 7.95833C75.5949 7.37028 75.5949 6.89248 75.7058 6.48819C75.8166 5.97365 76.0753 5.64286 76.4818 5.4591H76.5187C76.5187 5.4591 76.5187 5.4591 76.5557 5.4591C76.5557 5.4591 76.5557 5.4591 76.5926 5.4591H76.6296C76.8144 5.38559 76.9991 5.34884 77.1839 5.34884C77.3687 5.34884 77.5534 5.38559 77.7382 5.4591C77.886 5.5326 77.9969 5.60611 77.9969 5.67962C77.9969 5.71637 77.9599 5.78988 77.886 5.86339C77.6643 6.08391 77.5165 6.37793 77.5165 6.70871C77.5165 7.0395 77.6273 7.29677 77.8491 7.51729C78.0708 7.73781 78.3664 7.81132 78.699 7.81132C79.0685 7.81132 79.4011 7.6643 79.6598 7.40703C79.9185 7.14976 80.0293 6.78222 80.0293 6.37793C79.9185 5.78988 79.6967 5.38559 79.2533 5.09156Z" fill="#36364A" fill-opacity="0.41"/>
<path d="M32.8033 5.12939V5.8277L33.5793 5.90121C34.1705 5.97471 34.577 6.12173 34.7618 6.34225C34.8357 6.41575 34.8726 6.48926 34.9096 6.56277C34.9466 6.63627 34.9835 6.70978 34.9835 6.85679C34.9835 6.96706 35.0205 7.11407 35.0205 7.29784C35.0205 7.4816 35.0205 7.7389 35.0205 8.03292V16.6699C35.0205 16.964 35.0205 17.2212 35.0205 17.405C35.0205 17.5888 34.9835 17.7358 34.9835 17.846C34.9835 17.9563 34.9466 18.0666 34.9096 18.1401C34.8726 18.2136 34.8357 18.2871 34.7618 18.3238C34.577 18.5811 34.1705 18.7281 33.5793 18.7649L32.8033 18.8384V19.5367H39.7134V18.8384L38.7157 18.7649C38.1245 18.7281 37.755 18.5811 37.5333 18.3238C37.4594 18.2503 37.4224 18.2136 37.4224 18.1401C37.3855 18.0666 37.3855 17.9563 37.3485 17.846C37.3116 17.7358 37.3116 17.5888 37.3116 17.405C37.3116 17.2212 37.3116 17.0007 37.3116 16.6699V13.3254H39.1961C39.4178 13.3254 39.6026 13.3621 39.7504 13.3989C39.9352 13.4356 40.1199 13.5091 40.2677 13.6194C40.4156 13.7297 40.5264 13.8767 40.6373 14.0972C40.7481 14.281 40.859 14.5382 40.9329 14.8323L41.1177 15.4203H41.9676V10.3116H41.1177L40.9699 10.8996C40.859 11.2304 40.7481 11.4877 40.6742 11.6715C40.5634 11.892 40.4525 12.039 40.3047 12.1493C40.1569 12.2595 40.0091 12.3698 39.8243 12.4065C39.7134 12.4433 39.6026 12.4433 39.4178 12.48H37.2746V6.04822H39.6395C40.3417 6.04822 40.9329 6.08497 41.3764 6.15848C41.8198 6.23199 42.1893 6.379 42.448 6.59952C42.7067 6.82004 42.8914 7.11407 42.9653 7.4816C43.0762 7.84914 43.1132 8.3637 43.1501 8.95175H44V5.12939H32.8033Z" fill="#36364A" fill-opacity="0.41"/>
</g>
</g>
</g>
</g>
<defs>
<clipPath id="clip0_1_66">
<rect width="105" height="24" fill="white" transform="translate(0.690002 0.0200195)"/>
</clipPath>
<clipPath id="clip1_1_66">
<rect width="105" height="24" fill="white" transform="translate(0.690002 0.0200195)"/>
</clipPath>
<clipPath id="clip2_1_66">
<rect width="105" height="24" fill="white" transform="translate(0.690002 0.0200195)"/>
</clipPath>
</defs>
</svg>
