<svg width="107" height="28" viewBox="0 0 107 28" fill="none" xmlns="http://www.w3.org/2000/svg">
<g clip-path="url(#clip0_1_115)">
<g clip-path="url(#clip1_1_115)">
<g clip-path="url(#clip2_1_115)">
<path d="M49.194 9.60961V11.8339C48.2334 10.3132 46.6096 9.33726 44.5741 9.33726C41.3493 9.33726 38.6734 11.9246 38.6734 15.2837C38.6734 18.6428 41.3493 21.2302 44.5741 21.2302C46.6096 21.2302 48.2334 20.2543 49.194 18.7336V20.504C49.194 22.8189 47.6159 24.317 44.9629 24.317C42.4929 24.317 41.4408 23.4091 40.869 22.2516L39.5425 23.0006C40.4345 24.7708 42.3328 25.7695 44.9629 25.7695C47.9132 25.7695 50.7035 23.9538 50.7035 20.504V9.60961H49.194ZM44.6884 19.7776C42.1498 19.7776 40.1829 17.8031 40.1829 15.2837C40.1829 12.7644 42.1498 10.7899 44.6884 10.7899C47.2271 10.7899 49.194 12.7644 49.194 15.2837C49.194 17.8031 47.2271 19.7776 44.6884 19.7776ZM59.2284 21.2302C62.5676 21.2302 65.2434 18.6428 65.2434 15.2837C65.2434 11.9246 62.5676 9.33726 59.2284 9.33726C55.8893 9.33726 53.2133 11.9246 53.2133 15.2837C53.2133 18.6428 55.8893 21.2302 59.2284 21.2302ZM59.2284 19.7776C56.6897 19.7776 54.7228 17.8031 54.7228 15.2837C54.7228 12.7644 56.6897 10.7899 59.2284 10.7899C61.767 10.7899 63.7339 12.7644 63.7339 15.2837C63.7339 17.8031 61.767 19.7776 59.2284 19.7776ZM73.0983 21.2302C76.4374 21.2302 79.1133 18.6428 79.1133 15.2837C79.1133 11.9246 76.4374 9.33726 73.0983 9.33726C69.7591 9.33726 67.0833 11.9246 67.0833 15.2837C67.0833 18.6428 69.7591 21.2302 73.0983 21.2302ZM73.0983 19.7776C70.5596 19.7776 68.5928 17.8031 68.5928 15.2837C68.5928 12.7644 70.5596 10.7899 73.0983 10.7899C75.637 10.7899 77.6038 12.7644 77.6038 15.2837C77.6038 17.8031 75.637 19.7776 73.0983 19.7776ZM91.4736 5.07031V11.8339C90.513 10.3132 88.8892 9.33726 86.8537 9.33726C83.6289 9.33726 80.9532 11.9246 80.9532 15.2837C80.9532 18.6428 83.6289 21.2302 86.8537 21.2302C88.8892 21.2302 90.513 20.2543 91.4736 18.7336V20.9579H92.983V5.07031H91.4736ZM86.968 19.7776C84.4294 19.7776 82.4626 17.8031 82.4626 15.2837C82.4626 12.7644 84.4294 10.7899 86.968 10.7899C89.5066 10.7899 91.4736 12.7644 91.4736 15.2837C91.4736 17.8031 89.5066 19.7776 86.968 19.7776ZM104.413 9.60961L100.708 19.1195L96.408 9.60961H94.8069L99.9301 21.026L99.6328 21.7295C99.0152 23.2048 97.986 24.2488 96.4995 24.09V25.4972C98.5578 25.656 100.25 24.1808 101.119 22.0019L106.013 9.60961H104.413Z" fill="#36364A" fill-opacity="0.41"/>
<path d="M17.0288 0.735888C17.0288 0.346057 16.7129 0.0300293 16.323 0.0300293C15.9331 0.0300293 15.6172 0.346057 15.6172 0.735888V4.97107C15.6172 5.36084 15.9331 5.67687 16.323 5.67687C16.7129 5.67687 17.0288 5.36084 17.0288 4.97107V0.735888Z" fill="#36364A" fill-opacity="0.41"/>
<path d="M6.04264 12.7859C6.24 12.4482 6.12287 12.0165 5.7811 11.8217L2.06787 9.70428C1.72608 9.5094 1.28904 9.62509 1.09171 9.96253C0.894377 10.3002 1.01148 10.7319 1.35326 10.9267L5.06648 13.0442C5.40826 13.2391 5.84527 13.1236 6.04264 12.7859Z" fill="#36364A" fill-opacity="0.41"/>
<path d="M25.7067 3.32046C25.9015 2.97862 25.7859 2.54167 25.4482 2.34422C25.1107 2.14696 24.679 2.26405 24.4841 2.60589L22.3666 6.31901C22.1718 6.66085 22.2875 7.09794 22.6251 7.29524C22.9626 7.49254 23.3943 7.3754 23.5892 7.03371L25.7067 3.32046Z" fill="#36364A" fill-opacity="0.41"/>
<path d="M10.0204 7.29523C10.3581 7.09794 10.4736 6.66085 10.2788 6.31901L8.1614 2.6059C7.96647 2.26406 7.53483 2.14695 7.19727 2.34423C6.85956 2.54168 6.74401 2.97861 6.9388 3.32046L9.05624 7.03371C9.25117 7.3754 9.68281 7.49254 10.0204 7.29523Z" fill="#36364A" fill-opacity="0.41"/>
<path d="M31.2925 10.9267C31.6343 10.7319 31.7514 10.3002 31.554 9.96253C31.3567 9.62509 30.9196 9.5094 30.5778 9.70428L26.8647 11.8217C26.5229 12.0165 26.4058 12.4482 26.6031 12.7859C26.8005 13.1236 27.2375 13.2391 27.5792 13.0442L31.2925 10.9267Z" fill="#36364A" fill-opacity="0.41"/>
<path d="M22.9234 21.2009V27.0311C22.9234 27.4685 22.63 27.7599 22.19 27.7599H10.4563C10.0162 27.7599 9.7229 27.4685 9.7229 27.0311V21.2009H15.5898V27.7599H17.0566V21.2009H22.9234ZM15.5898 16.0996H8.98965C8.54957 16.0996 8.25623 16.3911 8.25623 16.8284V19.0146C8.25623 19.4519 8.54957 19.7434 8.98965 19.7434H15.5898V16.0996ZM23.6566 16.0996H17.0566V19.7434H23.6566C24.0967 19.7434 24.3901 19.4519 24.3901 19.0146V16.8284C24.3901 16.3911 24.0967 16.0996 23.6566 16.0996ZM21.53 15.298L21.6033 15.0064C21.8967 14.2776 21.8234 13.4031 21.3833 12.7473C20.9433 12.0913 20.1366 11.7269 19.33 11.7269C18.3032 11.7269 17.4232 12.31 17.0566 13.2574L15.5898 16.8284H19.2567C20.21 16.8284 21.1632 16.2452 21.53 15.298ZM18.4499 13.7675C18.5965 13.4031 18.9633 13.1844 19.33 13.1844C19.6233 13.1844 19.9166 13.3302 20.1366 13.6218C20.2833 13.9132 20.3567 14.2047 20.21 14.4963L20.1366 14.7877C19.9899 15.1521 19.6233 15.3708 19.2567 15.3708H17.7899L18.4499 13.7675ZM15.5898 13.2574C15.2231 12.31 14.2698 11.7269 13.3164 11.7269C12.5097 11.7269 11.7029 12.0913 11.263 12.8201C10.8229 13.4759 10.7496 14.2776 11.0429 15.0793L11.1163 15.3708C11.4831 16.2452 12.4364 16.8284 13.3898 16.8284H16.9831L15.5898 13.2574ZM14.1963 13.7675L14.8565 15.3708H13.3898C13.0231 15.3708 12.6564 15.1521 12.5097 14.7877L12.3631 14.4963C12.2898 14.2047 12.2898 13.8405 12.5097 13.6218C12.6564 13.3302 12.9498 13.1844 13.3164 13.1844C13.6831 13.1844 14.0498 13.4031 14.1963 13.7675Z" fill="#36364A" fill-opacity="0.41"/>
</g>
</g>
</g>
<defs>
<clipPath id="clip0_1_115">
<rect width="106" height="27.73" fill="white" transform="translate(0.97998 0.0300293)"/>
</clipPath>
<clipPath id="clip1_1_115">
<rect width="106" height="27.73" fill="white" transform="translate(0.97998 0.0300293)"/>
</clipPath>
<clipPath id="clip2_1_115">
<rect width="105.968" height="27.73" fill="white" transform="translate(0.99585 0.0300293)"/>
</clipPath>
</defs>
</svg>
