<svg width="120" height="28" viewBox="0 0 120 28" fill="none" xmlns="http://www.w3.org/2000/svg">
<g clip-path="url(#clip0_1_55)">
<g clip-path="url(#clip1_1_55)">
<g clip-path="url(#clip2_1_55)">
<path d="M41.8528 21.823V14.5642C41.8528 13.4381 41.6164 12.6193 41.1439 12.1081C40.6714 11.5966 39.9384 11.341 38.9453 11.341C37.6098 11.341 36.6322 11.6789 36.0124 12.3552C35.3924 13.0313 35.0826 14.1281 35.0826 15.645V21.823H34.0654V5.80115H35.0826V10.8981L35.0312 12.3296H35.1031C35.5209 11.6567 36.0483 11.1693 36.6853 10.8673C37.3222 10.5653 38.1133 10.4141 39.0584 10.4141C41.5926 10.4141 42.8597 11.7767 42.8597 14.502V21.823H41.8528ZM55.7116 16.2111C55.7116 18.0371 55.2699 19.4635 54.3864 20.4897C53.5029 21.5162 52.2837 22.0292 50.729 22.0292C49.7495 22.0292 48.8866 21.7926 48.1402 21.3188C47.3936 20.8449 46.8217 20.1655 46.4244 19.2795C46.0272 18.3944 45.8287 17.3716 45.8287 16.2111C45.8287 14.3852 46.2703 12.9624 47.1539 11.9426C48.0374 10.9233 49.2497 10.4134 50.7907 10.4134C52.3248 10.4134 53.5285 10.9299 54.4018 11.9632C55.275 12.9967 55.7116 14.4125 55.7116 16.2111ZM46.897 16.2111C46.897 17.7488 47.2342 18.9487 47.909 19.8102C48.5837 20.6717 49.5373 21.1024 50.7701 21.1024C52.0028 21.1024 52.9566 20.6717 53.6314 19.8102C54.3058 18.9487 54.6431 17.7491 54.6431 16.2111C54.6431 14.6667 54.3024 13.4687 53.6211 12.6175C52.9395 11.7664 51.9824 11.3407 50.7495 11.3407C49.5167 11.3407 48.5664 11.7646 47.8987 12.6125C47.2308 13.4604 46.897 14.6601 46.897 16.2111ZM72.7552 21.823V14.4816C72.7552 13.3899 72.5429 12.5932 72.1189 12.0924C71.6942 11.5913 71.0438 11.3407 70.1671 11.3407C69.0232 11.3407 68.1779 11.6565 67.6293 12.288C67.0813 12.9195 66.8075 13.9116 66.8075 15.2636V21.823H65.7699V14.1729C65.7699 12.2847 64.9067 11.341 63.1806 11.341C62.0098 11.341 61.1567 11.6824 60.6228 12.3656C60.0884 13.0485 59.8215 14.1417 59.8215 15.6452V21.8232H58.8045V10.6304H59.647L59.8627 12.1647H59.9243C60.2331 11.6087 60.6713 11.1777 61.2393 10.8723C61.8074 10.5669 62.435 10.4141 63.1195 10.4141C64.8797 10.4141 66.0096 11.0766 66.5101 12.4016H66.5515C66.9144 11.7632 67.4025 11.2723 68.0154 10.929C68.6286 10.5857 69.3257 10.4141 70.1064 10.4141C71.3251 10.4141 72.2395 10.7402 72.849 11.3923C73.4585 12.0446 73.7634 13.081 73.7634 14.502V21.823H72.7552ZM81.8882 22.0292C80.2645 22.0292 78.9998 21.5281 78.0922 20.5258C77.1847 19.5236 76.7311 18.1197 76.7311 16.3142C76.7311 14.5295 77.1693 13.0992 78.0459 12.0255C78.9226 10.951 80.104 10.4139 81.5899 10.4139C82.9045 10.4139 83.9422 10.874 84.7032 11.7937C85.4628 12.7136 85.8431 13.9629 85.8431 15.5418V16.3658H77.7989C77.8129 17.903 78.1705 19.0769 78.8725 19.8873C79.574 20.6976 80.579 21.1024 81.8877 21.1024C82.5243 21.1024 83.0847 21.0581 83.5676 20.9687C84.05 20.8794 84.661 20.687 85.4012 20.392V21.3188C84.7712 21.5926 84.189 21.7803 83.6548 21.8794C83.1212 21.9795 82.532 22.0292 81.8882 22.0292ZM81.5906 11.3203C80.5157 11.3203 79.652 11.6756 79.0014 12.386C78.3507 13.0967 77.9706 14.121 77.8615 15.4599H84.7646C84.7646 14.1626 84.4838 13.1481 83.9222 12.4169C83.3609 11.6859 82.5833 11.3203 81.5906 11.3203ZM93.641 10.4141C95.2021 10.4141 96.379 10.9068 97.17 11.8919C97.9611 12.8769 98.3564 14.3166 98.3564 16.2111C98.3564 18.0713 97.9406 19.506 97.1084 20.5159C96.2762 21.5247 95.1066 22.0295 93.6002 22.0295C92.8055 22.0295 92.0898 21.8647 91.4529 21.5354C90.8166 21.2057 90.3129 20.7389 89.9427 20.1347H89.8502L89.5624 21.823H88.9257V5.80115H89.9427V9.82731C89.9427 10.4313 89.929 10.9873 89.9015 11.4954L89.8702 12.3706H89.942C90.3665 11.6978 90.8785 11.2037 91.4778 10.888C92.0777 10.5719 92.7988 10.4141 93.641 10.4141ZM93.6205 11.341C92.306 11.341 91.3643 11.7187 90.7953 12.4741C90.2273 13.2291 89.9424 14.4751 89.9424 16.2113V16.3872C89.9424 18.0754 90.2386 19.288 90.8311 20.022C91.4233 20.7566 92.3462 21.1243 93.6 21.1243C94.8189 21.1243 95.7368 20.6967 96.3529 19.8419C96.9695 18.9871 97.2776 17.7708 97.2776 16.1918C97.2778 12.9576 96.0586 11.341 93.6205 11.341ZM110.684 16.2111C110.684 18.0371 110.243 19.4635 109.359 20.4897C108.477 21.5162 107.257 22.0292 105.702 22.0292C104.722 22.0292 103.86 21.7926 103.113 21.3188C102.366 20.8449 101.794 20.1655 101.397 19.2795C101 18.3944 100.801 17.3716 100.801 16.2111C100.801 14.3852 101.244 12.9624 102.126 11.9426C103.01 10.9233 104.223 10.4134 105.764 10.4134C107.298 10.4134 108.502 10.9299 109.374 11.9632C110.248 12.997 110.684 14.4125 110.684 16.2111ZM101.87 16.2111C101.87 17.7488 102.208 18.9487 102.882 19.8102C103.556 20.6717 104.51 21.1024 105.743 21.1024C106.976 21.1024 107.93 20.6717 108.605 19.8102C109.279 18.9487 109.616 17.7491 109.616 16.2111C109.616 14.6667 109.276 13.4687 108.594 12.6175C107.913 11.7664 106.956 11.3407 105.723 11.3407C104.489 11.3407 103.539 11.7646 102.872 12.6125C102.204 13.4604 101.87 14.6601 101.87 16.2111ZM116.725 21.1231C117.369 21.1231 117.931 21.0684 118.41 20.9583V21.7821C117.917 21.9469 117.348 22.0292 116.705 22.0292C115.719 22.0292 114.991 21.7649 114.522 21.2364C114.053 20.7078 113.818 19.8772 113.818 18.7445V11.516H112.164V10.9187L113.818 10.4554L114.333 7.9222H114.855V10.6304H118.133V11.516H114.855V18.6002C114.855 19.4585 115.006 20.0936 115.308 20.506C115.609 20.9172 116.082 21.1231 116.725 21.1231Z" fill="#36364A" fill-opacity="0.41"/>
<path fill-rule="evenodd" clip-rule="evenodd" d="M14.0218 0.141724C6.43237 0.141724 0.279999 6.30845 0.279999 13.9152C0.279999 21.5219 6.43237 27.6883 14.0216 27.6883C21.6108 27.6883 27.7632 21.5221 27.7632 13.9152C27.7634 6.30845 21.6108 0.141724 14.0218 0.141724Z" fill="#36364A" fill-opacity="0.41"/>
<path d="M14.0219 26.3703C7.16985 26.3703 1.59512 20.7825 1.59512 13.915C1.59512 7.04724 7.16985 1.45972 14.0219 1.45972C20.8739 1.45972 26.4487 7.04724 26.4487 13.915C26.4484 20.7825 20.8737 26.3703 14.0219 26.3703Z" fill="#36364A" fill-opacity="0.41"/>
<path d="M15.069 13.7792C15.069 14.6957 15.8113 15.439 16.7269 15.439C17.1664 15.4393 17.5881 15.2647 17.899 14.9534C18.2099 14.642 18.3848 14.2197 18.385 13.7792C18.3849 13.3386 18.21 12.9161 17.8991 12.6047C17.5882 12.2933 17.1665 12.1186 16.7269 12.1189C15.8118 12.1189 15.069 12.8622 15.069 13.7792ZM9.69102 13.7792C9.69102 14.6957 10.4333 15.439 11.3491 15.439C12.2651 15.439 13.0074 14.6957 13.0074 13.7792C13.0072 13.3386 12.8323 12.9161 12.5213 12.6047C12.2104 12.2933 11.7887 12.1186 11.3491 12.1189C10.4333 12.1189 9.69102 12.8622 9.69102 13.7792ZM11.557 19.9011H9.74368C9.14947 19.9014 8.66753 19.4189 8.66714 18.8233V16.9945H8.02678C7.70684 16.9945 7.44734 16.7349 7.44684 16.4142V14.0666C7.4469 13.9126 7.50803 13.7648 7.61679 13.6559C7.72555 13.547 7.87303 13.4858 8.02678 13.4859H8.66669V11.1833C8.66719 10.588 9.14896 10.1055 9.74298 10.1057H13.7139V9.44641C12.9362 9.28853 12.3517 8.60148 12.3517 7.77674C12.3519 7.32458 12.5313 6.89102 12.8504 6.57148C13.1696 6.25192 13.6024 6.07257 14.0535 6.07288C14.9935 6.07288 15.7555 6.83543 15.7555 7.77674C15.7555 8.62558 15.1355 9.32891 14.3245 9.45926V10.1057H18.3078C18.902 10.1053 19.3841 10.5878 19.3846 11.1833V13.4859H20.016C20.1699 13.4856 20.3176 13.5466 20.4266 13.6556C20.5355 13.7645 20.5968 13.9124 20.5969 14.0666V16.4142C20.5966 16.5684 20.5353 16.7162 20.4263 16.825C20.3174 16.9338 20.1698 16.9948 20.016 16.9945H19.3846V18.8233C19.384 19.4189 18.902 19.9012 18.3078 19.9011H11.557ZM10.748 16.9737C10.3845 16.9737 10.0896 17.275 10.0896 17.6344V17.7349C10.0896 18.0997 10.3854 18.3958 10.748 18.3958H17.4779C17.8416 18.3958 18.1364 18.0945 18.1364 17.7349V17.6344C18.1362 17.2698 17.8415 16.9742 17.4779 16.9737H10.748Z" fill="white"/>
</g>
</g>
</g>
<defs>
<clipPath id="clip0_1_55">
<rect width="119" height="27.77" fill="white" transform="translate(0.279999 0.140015)"/>
</clipPath>
<clipPath id="clip1_1_55">
<rect width="119" height="27.77" fill="white" transform="translate(0.279999 0.140015)"/>
</clipPath>
<clipPath id="clip2_1_55">
<rect width="119" height="27.7667" fill="white" transform="translate(0.279999 0.141724)"/>
</clipPath>
</defs>
</svg>
