<svg width="131" height="21" viewBox="0 0 131 21" fill="none" xmlns="http://www.w3.org/2000/svg">
<g clip-path="url(#clip0_1_91)">
<g clip-path="url(#clip1_1_91)">
<g clip-path="url(#clip2_1_91)">
<path d="M26.1515 10.9847C26.5447 14.0473 26.9095 16.9228 27.2883 19.7952C27.3332 20.1393 27.2614 20.2607 26.8732 20.28C24.5354 20.3953 24.5368 20.4045 23.6917 18.2913C23.3399 17.412 22.997 16.5292 22.6222 15.6586C22.5397 15.5155 22.5093 15.3494 22.5359 15.1873C22.5625 15.0251 22.6445 14.8765 22.7685 14.7657C23.8744 13.5665 24.9514 12.3347 26.1515 10.9847Z" fill="#36364A" fill-opacity="0.41"/>
<path d="M12.4107 13.5514C12.7455 15.2373 13.0758 16.8219 13.3667 18.4135C13.4564 18.9062 13.8603 19.5321 13.5147 19.8652C13.2168 20.1515 12.5552 19.7465 12.0467 19.7649C10.6959 19.8148 10.0671 19.195 9.84763 17.8936C9.71882 17.1296 9.66182 16.6005 10.3067 16.0088C11.0595 15.2331 11.7622 14.4124 12.4107 13.5514Z" fill="#36364A" fill-opacity="0.41"/>
<path d="M16.2251 16.6264C16.2251 15.6796 16.2103 14.7328 16.2323 13.7864C16.2408 13.4147 16.135 13.2893 15.7305 13.2762C12.9719 13.187 10.214 13.0789 7.45655 12.9518C7.02346 12.9321 6.85247 13.0522 6.76046 13.4704C6.33501 15.4069 5.8521 17.3321 5.43651 19.2709C5.31982 19.8153 5.1071 20.016 4.52412 19.9542C3.87725 19.8887 3.22605 19.8741 2.57678 19.9104C2.08759 19.9345 1.99335 19.7351 2.00052 19.3191C2.04271 16.4112 2.1051 13.5032 2.07638 10.5962C2.07108 9.70164 2.37695 8.83183 2.94391 8.12923C4.46981 6.05809 5.93962 3.9497 7.41795 1.84657C7.49769 1.70255 7.62318 1.58775 7.77552 1.51944C7.92785 1.45113 8.09879 1.43302 8.26258 1.46784C13.7747 2.0438 19.2889 2.60181 24.8052 3.14184C25.1502 3.18223 25.4797 3.30525 25.7643 3.49996C29.0468 5.58337 32.3234 7.67424 35.6225 9.73223C36.1162 10.0391 36.1297 10.2144 35.6552 10.4919C35.5531 10.5457 35.4619 10.6173 35.386 10.7031C34.4359 11.902 33.3215 11.8481 31.9752 11.3168C30.3478 10.6764 28.6316 10.2517 26.963 9.70725C26.8042 9.64437 26.632 9.62056 26.4616 9.63791C26.2911 9.65526 26.1276 9.71324 25.9855 9.80675C24.4506 10.7378 22.9087 11.6574 21.3598 12.5656C21.2203 12.6386 21.1011 12.7438 21.0127 12.8719C20.9242 13.0001 20.8691 13.1475 20.8522 13.3012C20.5124 15.3 20.1238 17.29 19.8114 19.2941C19.7217 19.8683 19.5121 20.0502 18.9278 20.0103C18.1857 19.9675 17.4417 19.9663 16.6995 20.0068C16.2593 20.0261 16.1465 19.8753 16.1609 19.4655C16.1897 18.5191 16.1699 17.5714 16.1699 16.6246L16.2251 16.6264Z" fill="#36364A" fill-opacity="0.41"/>
<path d="M49.1917 10.8922C50.3023 9.25587 51.9077 8.78342 53.7621 9.02776C54.7914 9.11076 55.7494 9.57486 56.4399 10.3251C57.1303 11.0753 57.501 12.0549 57.4762 13.0633C57.5474 15.1473 57.4825 17.2358 57.5136 19.3218C57.5214 19.8566 57.2162 19.8236 56.8514 19.8287C56.4517 19.8322 56.1325 19.852 56.1434 19.2797C56.1777 17.5055 56.1605 15.7312 56.1517 13.9596C56.1451 13.5956 56.1163 13.2323 56.0655 12.8717C55.737 10.3093 53.4331 9.8809 51.7058 10.4487C50.6158 10.8035 49.9287 11.8786 49.9141 13.2468C49.8934 15.1765 49.8945 17.1064 49.9173 19.0364C49.9235 19.5641 49.8467 19.8474 49.187 19.8474C48.5164 19.8474 48.4558 19.5362 48.4604 19.0242C48.477 17.1993 48.4968 15.3744 48.4604 13.5495C48.4085 11.1107 46.6739 9.78611 44.3664 10.3772C43.8046 10.5168 43.3037 10.8293 42.938 11.2685C42.5722 11.7077 42.3609 12.2503 42.3354 12.8159C42.1805 14.8959 42.1537 16.9831 42.2551 19.0663C42.2638 19.8956 41.8357 19.8621 41.2689 19.8267C41.0234 19.812 40.8537 19.7501 40.862 19.4683C40.9253 17.177 40.6891 14.8771 40.9855 12.5944C41.2139 10.8349 42.1828 9.5585 44.0051 9.14739C45.9525 8.70535 47.7488 8.98265 49.0308 10.6986C49.0712 10.7508 49.1206 10.8055 49.1917 10.8922Z" fill="#36364A" fill-opacity="0.41"/>
<path d="M120.001 10.8389C120.691 10.0317 121.613 9.44406 122.647 9.15118C123.68 8.8583 124.78 8.87354 125.806 9.19494C128.435 9.88841 129.77 12.0915 129.562 15.2394C129.506 16.2749 129.133 17.27 128.492 18.0968C127.852 18.9236 126.972 19.5442 125.967 19.8788C124.922 20.2286 123.795 20.2737 122.724 20.0086C121.653 19.7435 120.684 19.1797 119.936 18.3859C119.057 17.3869 118.583 16.1084 118.602 14.7913C118.578 10.6224 118.596 6.453 118.59 2.28408C118.59 1.81772 118.644 1.46591 119.261 1.45222C119.902 1.43803 120.01 1.76753 120.008 2.29016C119.994 5.07722 120.001 7.86427 120.001 10.8389ZM120.001 14.5571C119.923 17.9844 122.836 19.5695 125.757 18.5547C127.566 17.9266 128.551 15.8467 128.169 13.6882C127.885 12.0803 127.115 10.8424 125.402 10.3933C122.312 9.57665 119.996 11.3767 120.001 14.5571Z" fill="#36364A" fill-opacity="0.41"/>
<path d="M113.672 10.8652C113.672 7.87135 113.676 5.06251 113.666 2.25415C113.666 1.77614 113.733 1.44309 114.352 1.45069C114.863 1.4588 115.063 1.63065 115.061 2.14466C115.044 6.39723 115.09 10.6498 115.03 14.9013C114.985 18.0665 112.635 20.1804 109.376 20.1312C106.299 20.0851 104.066 17.8156 104.051 14.7178C104.036 11.8284 105.414 9.77586 107.901 9.17465C110.043 8.65505 112.001 9.00634 113.672 10.8652ZM109.533 18.8371C112.06 18.8406 113.666 17.1825 113.672 14.5617C113.677 11.8704 112.093 10.2118 109.525 10.2184C107.002 10.225 105.425 11.8801 105.418 14.5318C105.409 17.1485 107.018 18.8336 109.533 18.8371Z" fill="#36364A" fill-opacity="0.41"/>
<path d="M88.0441 11.0777C88.0441 8.12748 88.0525 5.2725 88.0369 2.41753C88.0344 1.91669 88.136 1.62015 88.7365 1.6389C89.2125 1.6536 89.3993 1.82545 89.3977 2.2979C89.3817 6.62396 89.4387 10.951 89.3572 15.275C89.3012 18.2547 86.9408 20.3326 83.8558 20.3184C83.1515 20.3371 82.4505 20.2191 81.7934 19.9711C81.1363 19.7232 80.5362 19.3502 80.0278 18.8739C79.5195 18.3976 79.113 17.8275 78.832 17.1965C78.551 16.5656 78.4011 15.8864 78.391 15.1985C78.2783 12.4287 79.4259 10.3382 81.6483 9.56105C84.0316 8.72767 86.2193 9.0445 88.0441 11.0777ZM83.919 19.0237C86.4161 19.0121 88.0711 17.2764 88.0426 14.7053C88.0105 12.0302 86.3927 10.3818 83.8225 10.4046C81.3198 10.4269 79.7384 12.1205 79.7545 14.761C79.7705 17.3686 81.3987 19.0354 83.919 19.0237Z" fill="#36364A" fill-opacity="0.41"/>
<path d="M96.9659 20.1358C95.4789 20.1251 94.1507 19.7612 93.2606 18.4954C93.0276 18.1644 92.7229 17.768 93.2555 17.4243C93.7054 17.1338 94.0053 17.3148 94.3262 17.7071C94.9204 18.3538 95.7287 18.7756 96.6095 18.8986C97.4902 19.0215 98.3871 18.8379 99.1432 18.3798C99.3953 18.2302 99.599 18.0138 99.7306 17.7558C99.8621 17.4978 99.9161 17.2087 99.8864 16.9219C99.869 16.6459 99.765 16.3818 99.5885 16.1655C99.4121 15.9492 99.1718 15.7912 98.9003 15.7129C97.8852 15.3845 96.8486 15.1233 95.7975 14.9312C95.3559 14.8293 94.9237 14.6913 94.5057 14.5186C94.1238 14.3588 93.7846 14.1154 93.5142 13.8073C93.2439 13.4992 93.0494 13.1346 92.9462 12.7415C92.8429 12.3485 92.8334 11.9375 92.9184 11.5403C93.0034 11.1431 93.1807 10.7703 93.4366 10.4506C94.7735 8.60795 99.441 8.27693 100.847 10.6676C101.029 10.9772 101.435 11.323 100.906 11.6666C100.455 11.9602 100.127 11.8831 99.7784 11.4046C98.8131 10.0724 96.2081 9.80378 94.9262 10.8506C94.6918 11.0061 94.508 11.2238 94.3963 11.4781C94.2846 11.7323 94.2496 12.0125 94.2956 12.2855C94.3415 12.5585 94.4664 12.813 94.6556 13.019C94.8447 13.225 95.0903 13.3738 95.3632 13.448C96.218 13.7364 97.1221 13.8875 98.005 14.0968C98.6318 14.2303 99.2368 14.4478 99.8028 14.7432C100.254 14.9638 100.634 15.3022 100.9 15.7208C101.166 16.1395 101.308 16.6219 101.31 17.1147C101.312 17.6074 101.175 18.0911 100.913 18.5121C100.651 18.9331 100.274 19.2749 99.8251 19.4996C98.9506 19.9656 97.9608 20.1858 96.9659 20.1358Z" fill="#36364A" fill-opacity="0.41"/>
<path d="M75.92 16.3553C75.92 17.2936 75.894 18.2309 75.9304 19.1702C75.9502 19.6771 75.7944 19.854 75.2557 19.8383C74.7642 19.8236 74.5291 19.7329 74.5363 19.1864C74.5664 17.4401 74.5618 15.6932 74.5441 13.9469C74.5161 11.2825 72.5293 9.76836 69.873 10.3696C69.1585 10.5186 68.5177 10.9013 68.0561 11.4543C67.5945 12.0073 67.34 12.6976 67.3345 13.4111C67.2555 15.2867 67.2789 17.1623 67.2919 19.0379C67.2955 19.5651 67.2219 19.8383 66.5653 19.8459C65.8693 19.854 65.8532 19.5169 65.8698 19.0232C65.9378 17.0462 65.7281 15.0606 65.9834 13.0892C66.3302 10.4091 68.2604 8.90204 71.1882 8.97402C71.7925 8.96274 72.3931 9.06789 72.9558 9.28348C73.5184 9.49906 74.0319 9.82085 74.4672 10.2304C74.9024 10.64 75.2507 11.1294 75.4922 11.6705C75.7337 12.2117 75.8635 12.794 75.8744 13.3842C75.9419 14.3702 75.8853 15.3612 75.8853 16.3537L75.92 16.3553Z" fill="#36364A" fill-opacity="0.41"/>
<path d="M62.3732 14.5849C62.3732 16.095 62.3525 17.6051 62.3846 19.1147C62.396 19.6445 62.2575 19.832 61.6766 19.8386C61.0466 19.8457 60.9973 19.5644 61.0019 19.0782C61.0175 16.1107 61.0129 13.1427 61.0066 10.1747C61.0066 9.70227 60.992 9.29116 61.6814 9.27595C62.3706 9.26074 62.3867 9.64194 62.382 10.1332C62.3643 11.6174 62.3732 13.1011 62.3732 14.5849Z" fill="#36364A" fill-opacity="0.41"/>
<path d="M60.527 5.99222C60.5314 5.69155 60.656 5.40447 60.8743 5.19236C61.0925 4.98026 61.387 4.85997 61.6949 4.85722C61.8541 4.85301 62.0125 4.8817 62.1597 4.94142C62.3068 5.00114 62.4394 5.09054 62.5487 5.20377C62.658 5.31699 62.7416 5.45149 62.794 5.59846C62.8464 5.74543 62.8664 5.90154 62.8528 6.0566C62.8371 6.35307 62.7033 6.63181 62.48 6.83318C62.2567 7.03456 61.9615 7.14259 61.6577 7.13418C61.3539 7.12577 61.0655 7.00158 60.8542 6.78817C60.6429 6.57477 60.5255 6.28908 60.527 5.99222Z" fill="#36364A" fill-opacity="0.41"/>
</g>
</g>
</g>
<defs>
<clipPath id="clip0_1_91">
<rect width="130" height="20" fill="white" transform="translate(0.589996 0.910034)"/>
</clipPath>
<clipPath id="clip1_1_91">
<rect width="130" height="20" fill="white" transform="translate(0.589996 0.910034)"/>
</clipPath>
<clipPath id="clip2_1_91">
<rect width="130" height="20" fill="white" transform="translate(0.589996 0.910034)"/>
</clipPath>
</defs>
</svg>
