<svg width="74" height="19" viewBox="0 0 74 19" fill="none" xmlns="http://www.w3.org/2000/svg">
<g clip-path="url(#clip0_1_105)">
<g clip-path="url(#clip1_1_105)">
<g clip-path="url(#clip2_1_105)">
<path d="M1.2009 17.785V2.03503H8.16398C9.13732 2.03503 10.0208 2.26003 10.8144 2.71003C11.608 3.14503 12.2296 3.73753 12.6788 4.48753C13.1429 5.23753 13.3751 6.09253 13.3751 7.05253C13.3751 7.99753 13.1429 8.86003 12.6788 9.64003C12.2296 10.405 11.608 11.0125 10.8144 11.4625C10.0208 11.9125 9.13732 12.1375 8.16398 12.1375H4.45782V17.785H1.2009ZM10.1181 17.785L6.11998 10.675L9.57906 10.1125L14.0265 17.8075L10.1181 17.785ZM4.45782 9.39253H8.00675C8.41106 9.39253 8.76295 9.30253 9.06244 9.12253C9.3769 8.92753 9.61649 8.66503 9.78121 8.33503C9.94592 7.99004 10.0283 7.60754 10.0283 7.18753C10.0283 6.73753 9.93095 6.34754 9.73629 6.01753C9.54162 5.68753 9.2571 5.43253 8.88275 5.25253C8.50839 5.05753 8.07413 4.96003 7.57998 4.96003H4.45782V9.39253Z" fill="#36364A" fill-opacity="0.41"/>
<path d="M20.5552 18.0099C19.2674 18.0099 18.1368 17.7474 17.1634 17.2224C16.2051 16.6973 15.4564 15.9773 14.9172 15.0624C14.3932 14.1474 14.1311 13.0973 14.1311 11.9124C14.1311 10.9824 14.2809 10.1349 14.5803 9.36993C14.8798 8.60493 15.2991 7.94494 15.8382 7.38993C16.3772 6.81994 17.0137 6.38494 17.7475 6.08493C18.4961 5.76993 19.3048 5.61243 20.1733 5.61243C20.982 5.61243 21.7306 5.76244 22.4195 6.06243C23.1083 6.36244 23.6998 6.78243 24.194 7.32243C24.703 7.84744 25.0924 8.47744 25.362 9.21243C25.6315 9.93243 25.7512 10.7124 25.7213 11.5524L25.6989 12.5424H16.1527L15.636 10.5849H23.0709L22.7115 10.9899V10.4949C22.6815 10.0899 22.5467 9.72993 22.3071 9.41493C22.0826 9.08494 21.7906 8.82993 21.4312 8.64993C21.0718 8.45494 20.6674 8.35743 20.2182 8.35743C19.5594 8.35743 18.9978 8.48494 18.5335 8.73993C18.0843 8.99494 17.74 9.36993 17.5003 9.86493C17.2608 10.3599 17.1409 10.9599 17.1409 11.6649C17.1409 12.3849 17.2907 13.0073 17.5903 13.5324C17.9047 14.0574 18.3389 14.4698 18.893 14.7699C19.462 15.0548 20.1283 15.1974 20.892 15.1974C21.4161 15.1974 21.8954 15.1149 22.3296 14.9499C22.7638 14.7848 23.228 14.4999 23.7223 14.0949L25.2496 16.2324C24.8154 16.6224 24.3361 16.9524 23.8121 17.2224C23.288 17.4774 22.7489 17.6724 22.1948 17.8074C21.6408 17.9424 21.0943 18.0099 20.5552 18.0099Z" fill="#36364A" fill-opacity="0.41"/>
<path d="M30.9535 18.0101C29.8453 18.0101 28.857 17.8301 27.9886 17.4701C27.135 17.0951 26.4462 16.5851 25.9221 15.9401L27.9212 14.2301C28.3704 14.7251 28.8795 15.0851 29.4486 15.3101C30.0176 15.5201 30.5866 15.6251 31.1556 15.6251C31.3802 15.6251 31.5824 15.6026 31.7621 15.5576C31.9567 15.4976 32.1215 15.4226 32.2562 15.3326C32.391 15.2276 32.4884 15.1076 32.5482 14.9726C32.6232 14.8226 32.6606 14.6651 32.6606 14.5001C32.6606 14.1701 32.5258 13.9151 32.2562 13.7351C32.1065 13.6451 31.8744 13.5476 31.5599 13.4426C31.2455 13.3226 30.8412 13.1951 30.347 13.0601C29.5833 12.8651 28.9319 12.6401 28.3929 12.3851C27.8687 12.1151 27.4495 11.8151 27.135 11.4851C26.8655 11.1701 26.6558 10.8326 26.5061 10.4726C26.3713 10.0976 26.3039 9.68513 26.3039 9.23513C26.3039 8.69513 26.4238 8.20763 26.6633 7.77263C26.9029 7.32263 27.2324 6.94013 27.6516 6.62513C28.0859 6.31013 28.5801 6.07013 29.1341 5.90513C29.6881 5.72513 30.2721 5.63513 30.8861 5.63513C31.5001 5.63513 32.099 5.71013 32.683 5.86013C33.267 6.01014 33.8061 6.22763 34.3002 6.51263C34.8093 6.78263 35.2512 7.10513 35.6255 7.48013L33.9184 9.37013C33.6489 9.11512 33.3419 8.88263 32.9975 8.67263C32.6681 8.46264 32.3236 8.29763 31.9642 8.17763C31.6049 8.05764 31.2829 7.99763 30.9984 7.99763C30.7438 7.99763 30.5118 8.02013 30.3021 8.06513C30.1075 8.11013 29.9427 8.18513 29.8079 8.29013C29.6732 8.38013 29.5684 8.49263 29.4935 8.62763C29.4336 8.76263 29.4036 8.91262 29.4036 9.07763C29.4036 9.24263 29.441 9.40013 29.5159 9.55013C29.6058 9.70014 29.7256 9.82763 29.8753 9.93263C30.0401 10.0226 30.2796 10.1276 30.5941 10.2476C30.9235 10.3676 31.3653 10.5026 31.9193 10.6526C32.6381 10.8476 33.2446 11.0651 33.7387 11.3051C34.2478 11.5451 34.6521 11.8226 34.9516 12.1376C35.2062 12.4076 35.3933 12.7151 35.5132 13.0601C35.633 13.4051 35.6929 13.7876 35.6929 14.2076C35.6929 14.9426 35.4832 15.5951 35.0639 16.1651C34.6596 16.7351 34.0981 17.1851 33.3793 17.5151C32.6606 17.8451 31.8519 18.0101 30.9535 18.0101Z" fill="#36364A" fill-opacity="0.41"/>
<path d="M42.4818 18.0099C41.194 18.0099 40.0635 17.7474 39.0901 17.2224C38.1318 16.6973 37.3831 15.9773 36.844 15.0624C36.3198 14.1474 36.0578 13.0973 36.0578 11.9124C36.0578 10.9824 36.2075 10.1349 36.5071 9.36993C36.8066 8.60493 37.2258 7.94494 37.7649 7.38993C38.304 6.81994 38.9404 6.38494 39.6741 6.08493C40.4229 5.76993 41.2315 5.61243 42.1 5.61243C42.9086 5.61243 43.6574 5.76244 44.3461 6.06243C45.0349 6.36244 45.6264 6.78243 46.1206 7.32243C46.6297 7.84744 47.0191 8.47744 47.2886 9.21243C47.5581 9.93243 47.678 10.7124 47.648 11.5524L47.6255 12.5424H38.0794L37.5628 10.5849H44.9975L44.6381 10.9899V10.4949C44.6082 10.0899 44.4734 9.72993 44.2338 9.41493C44.0092 9.08494 43.7172 8.82993 43.3578 8.64993C42.9984 8.45494 42.5941 8.35743 42.1449 8.35743C41.486 8.35743 40.9245 8.48494 40.4603 8.73993C40.0111 8.99494 39.6666 9.36993 39.4271 9.86493C39.1875 10.3599 39.0677 10.9599 39.0677 11.6649C39.0677 12.3849 39.2174 13.0073 39.5169 13.5324C39.8314 14.0574 40.2657 14.4698 40.8197 14.7699C41.3887 15.0548 42.0551 15.1974 42.8188 15.1974C43.3429 15.1974 43.822 15.1149 44.2563 14.9499C44.6906 14.7848 45.1548 14.4999 45.6489 14.0949L47.1763 16.2324C46.742 16.6224 46.2629 16.9524 45.7388 17.2224C45.2146 17.4774 44.6755 17.6724 44.1215 17.8074C43.5675 17.9424 43.0209 18.0099 42.4818 18.0099Z" fill="#36364A" fill-opacity="0.41"/>
<path d="M48.8816 17.7851V5.88263H51.9363L52.0262 8.31263L51.3973 8.58263C51.562 8.04263 51.854 7.55513 52.2733 7.12013C52.7075 6.67013 53.2242 6.31013 53.8231 6.04013C54.4221 5.77013 55.0511 5.63513 55.7099 5.63513C56.6083 5.63513 57.3571 5.81513 57.956 6.17513C58.57 6.53513 59.0268 7.08263 59.3262 7.81763C59.6406 8.53763 59.7979 9.43014 59.7979 10.4951V17.7851H56.6083V10.7426C56.6083 10.2026 56.5335 9.75263 56.3837 9.39263C56.234 9.03263 56.0019 8.77013 55.6874 8.60513C55.388 8.44012 55.0136 8.36513 54.5643 8.38013C54.2049 8.38013 53.868 8.44014 53.5536 8.56013C53.2541 8.66512 52.992 8.82264 52.7674 9.03263C52.5578 9.24263 52.3856 9.48263 52.2508 9.75263C52.1311 10.0226 52.0711 10.3151 52.0711 10.6301V17.7851H50.4988C50.1545 17.7851 49.8474 17.7851 49.5779 17.7851C49.3083 17.7851 49.0763 17.7851 48.8816 17.7851Z" fill="#36364A" fill-opacity="0.41"/>
<path d="M66.3807 18.0101C65.3326 18.0101 64.3967 17.7476 63.573 17.2226C62.7644 16.6826 62.1206 15.955 61.6413 15.0401C61.1772 14.11 60.945 13.0376 60.945 11.8226C60.945 10.6376 61.1772 9.58013 61.6413 8.65013C62.1206 7.70513 62.7644 6.97013 63.573 6.44513C64.3967 5.90513 65.3326 5.63513 66.3807 5.63513C66.9349 5.63513 67.4664 5.72513 67.9755 5.90513C68.4996 6.07013 68.9638 6.30263 69.3681 6.60263C69.7875 6.90263 70.1244 7.24013 70.3789 7.61513C70.6335 7.97513 70.7758 8.35013 70.8057 8.74013L69.997 8.89763V1.13513H73.209V17.7851H70.1767L70.042 15.0401L70.6709 15.1076C70.641 15.4825 70.5062 15.8425 70.2666 16.1876C70.027 16.5326 69.705 16.8476 69.3007 17.1326C68.9115 17.4026 68.4622 17.62 67.953 17.7851C67.4589 17.935 66.9349 18.0101 66.3807 18.0101ZM67.0995 15.3551C67.6985 15.3551 68.2226 15.2051 68.6718 14.9051C69.121 14.605 69.473 14.1926 69.7275 13.6676C69.9821 13.1425 70.1093 12.5276 70.1093 11.8226C70.1093 11.1326 69.9821 10.5251 69.7275 10.0001C69.473 9.47513 69.121 9.06263 68.6718 8.76263C68.2226 8.46263 67.6985 8.31263 67.0995 8.31263C66.5006 8.31263 65.9764 8.46263 65.5272 8.76263C65.093 9.06263 64.7486 9.47513 64.494 10.0001C64.2544 10.5251 64.1346 11.1326 64.1346 11.8226C64.1346 12.5276 64.2544 13.1425 64.494 13.6676C64.7486 14.1926 65.093 14.605 65.5272 14.9051C65.9764 15.2051 66.5006 15.3551 67.0995 15.3551Z" fill="#36364A" fill-opacity="0.41"/>
</g>
</g>
</g>
<defs>
<clipPath id="clip0_1_105">
<rect width="73" height="18" fill="white" transform="translate(0.279999 0.910034)"/>
</clipPath>
<clipPath id="clip1_1_105">
<rect width="73" height="18" fill="white" transform="translate(0.279999 0.910034)"/>
</clipPath>
<clipPath id="clip2_1_105">
<rect width="73" height="18" fill="white" transform="translate(0.279999 0.910034)"/>
</clipPath>
</defs>
</svg>
