<svg width="101" height="29" viewBox="0 0 101 29" fill="none" xmlns="http://www.w3.org/2000/svg">
<g clip-path="url(#clip0_1_134)">
<g clip-path="url(#clip1_1_134)">
<g clip-path="url(#clip2_1_134)">
<path d="M14.2678 0.910034C6.60223 0.910034 0.390015 7.17083 0.390015 14.8943C0.390015 22.6156 6.60334 28.8764 14.2678 28.8764C21.9311 28.8764 28.1444 22.6156 28.1444 14.8932C28.1444 7.17083 21.9322 0.910034 14.2678 0.910034ZM14.2678 4.40555C18.7833 4.40555 22.5989 7.33659 24.0378 11.3977H4.49668C5.93557 7.33659 9.75334 4.40555 14.2678 4.40555ZM14.2678 16.6415C14.04 16.6415 13.8145 16.5963 13.604 16.5084C13.3936 16.4206 13.2024 16.2918 13.0413 16.1294C12.8803 15.9671 12.7525 15.7744 12.6654 15.5623C12.5782 15.3501 12.5333 15.1228 12.5333 14.8932C12.5333 14.6636 12.5782 14.4363 12.6654 14.2241C12.7525 14.012 12.8803 13.8193 13.0413 13.657C13.2024 13.4946 13.3936 13.3658 13.604 13.278C13.8145 13.1901 14.04 13.1449 14.2678 13.1449C14.7278 13.1449 15.1689 13.3291 15.4942 13.657C15.8195 13.9848 16.0022 14.4295 16.0022 14.8932C16.0022 15.3569 15.8195 15.8016 15.4942 16.1294C15.1689 16.4573 14.7278 16.6415 14.2678 16.6415ZM3.8589 14.8943C8.5989 14.8943 12.4367 19.4953 12.5189 25.2039C7.61334 24.3572 3.8589 20.0732 3.8589 14.8943ZM16.0144 25.2039C16.0967 19.4964 19.9356 14.8943 24.6756 14.8943C24.6756 20.0732 20.92 24.3583 16.0144 25.2039ZM37.2844 19.95C36.5133 19.95 35.8367 19.8234 35.2544 19.5692C34.6636 19.297 34.1405 18.8952 33.7233 18.3932L35.0411 17.1993C35.3378 17.5857 35.67 17.8791 36.0389 18.0774C36.4056 18.2767 36.8333 18.3764 37.32 18.3764C38.2233 18.3764 38.6733 18.0225 38.6733 17.3158C38.6733 17.0391 38.5967 16.8241 38.4422 16.6695C38.3 16.5038 38.0511 16.394 37.6944 16.338L36.8222 16.189C35.8478 16.0233 35.1422 15.741 34.7022 15.3446C34.2633 14.947 34.0433 14.3668 34.0433 13.6041C34.0433 12.6991 34.3289 12.0249 34.8989 11.5836C35.4689 11.13 36.2767 10.9038 37.3211 10.9038C38.0444 10.9038 38.6678 11.0146 39.19 11.2353C39.7244 11.4559 40.1878 11.7818 40.5789 12.213L39.3144 13.389C39.0726 13.1093 38.7755 12.8835 38.4422 12.726C38.0924 12.5563 37.7082 12.4712 37.32 12.4774C36.4889 12.4774 36.0733 12.8257 36.0733 13.5212C36.0733 13.809 36.1567 14.0297 36.3233 14.1842C36.49 14.3276 36.7511 14.4273 37.1067 14.4822L37.9967 14.6311C38.9711 14.7969 39.6656 15.0791 40.0811 15.4767C40.5078 15.8631 40.7222 16.4097 40.7222 17.1164C40.7222 18.0124 40.4244 18.7068 39.8311 19.2041C39.2378 19.7014 38.3889 19.95 37.2844 19.95ZM42.4711 19.7518V11.102H44.6256V12.5434H44.8744C45.2433 11.4492 45.9733 10.9027 47.0656 10.9027C48.2289 10.9027 48.9822 11.4716 49.3267 12.6095H49.54C49.7422 12.0238 50.0511 11.5926 50.4667 11.317C50.8933 11.0404 51.4111 10.9027 52.0156 10.9027C52.7989 10.9027 53.41 11.1681 53.8489 11.6978C54.2889 12.2175 54.5089 12.9634 54.5089 13.9345V19.7506H52.3533V14.2828C52.3533 13.1561 51.92 12.5927 51.0533 12.5927C50.6389 12.5927 50.2822 12.7137 49.9856 12.9567C49.7011 13.1886 49.5578 13.5201 49.5578 13.9513V19.7506H47.4033V14.2828C47.4033 13.6858 47.2967 13.2558 47.0833 12.9903C46.8689 12.7249 46.5489 12.5927 46.1211 12.5927C45.7056 12.5927 45.35 12.7137 45.0533 12.9567C44.7678 13.1886 44.6256 13.5201 44.6256 13.9513V19.7506H42.47L42.4711 19.7518ZM62.8033 19.7518C61.8411 19.7518 61.3367 19.259 61.2889 18.2767H61.0756C60.9754 18.7789 60.6888 19.2235 60.2744 19.5199C59.8589 19.8066 59.3422 19.95 58.7244 19.95C57.87 19.95 57.2289 19.7294 56.8022 19.287C56.3744 18.8457 56.16 18.2263 56.16 17.4311C56.16 16.5262 56.4633 15.8519 57.0689 15.4106C57.6744 14.9682 58.5467 14.7476 59.6867 14.7476H61.1289V14.0017C61.1289 13.4943 61.01 13.118 60.7733 12.875C60.5467 12.633 60.1678 12.511 59.6333 12.511C59.1933 12.511 58.8256 12.6106 58.5289 12.8089C58.2322 12.997 57.9711 13.2681 57.7456 13.6209L56.4811 12.5602C56.8256 12.0641 57.2589 11.6665 57.7811 11.3674C58.3144 11.0583 58.9922 10.9038 59.8111 10.9038C62.1267 10.9038 63.2833 11.9196 63.2833 13.9524V18.1446H64.1033V19.7518H62.8033ZM59.5444 18.475C59.9833 18.475 60.3578 18.3596 60.6667 18.1278C60.9744 17.8847 61.1289 17.5532 61.1289 17.1332V15.9908H59.8289C58.8311 15.9908 58.3333 16.3492 58.3333 17.0671V17.4311C58.3333 17.7962 58.44 18.0617 58.6533 18.2263C58.8678 18.3932 59.1644 18.475 59.5444 18.475ZM65.7733 19.7518V11.102H67.9289V12.8738H68.1778C68.2844 12.3004 68.5044 11.8636 68.8367 11.5657C69.1811 11.2566 69.6256 11.102 70.1722 11.102H70.6356V13.1561H69.9233C69.2456 13.1561 68.7422 13.2558 68.4089 13.454C68.0889 13.6534 67.9289 14.0006 67.9289 14.4978V19.7506L65.7733 19.7518ZM74.9289 19.7518C74.1811 19.7518 73.64 19.5961 73.3089 19.287C72.9756 18.9778 72.8089 18.4862 72.8089 17.813V12.7103H71.5811V11.102H72.2222C72.5311 11.102 72.7389 11.0348 72.8444 10.9027C72.9644 10.7705 73.0233 10.56 73.0233 10.2732V8.75003H74.9644V11.102H76.6389V12.7103H74.9644V18.1446H76.4956V19.7518H74.9289ZM81.5367 19.95C80.2789 19.95 79.3167 19.586 78.6522 18.8569C77.9989 18.1278 77.6722 16.9842 77.6722 15.4263C77.6722 13.8695 77.9989 12.7271 78.6522 11.9969C79.3167 11.2689 80.2789 10.9038 81.5367 10.9038C82.4511 10.9038 83.1756 11.0975 83.71 11.4839C84.259 11.875 84.6704 12.432 84.8844 13.0743L83.1222 13.8023C83.0267 13.3834 82.8556 13.0687 82.6056 12.8593C82.3678 12.6375 82.0122 12.5278 81.5367 12.5278C80.4689 12.5278 79.9344 13.1236 79.9344 14.3164V16.5374C79.9344 17.7302 80.4678 18.326 81.5367 18.326C82.0356 18.326 82.4156 18.2162 82.6767 17.9945C82.9378 17.7738 83.1333 17.4322 83.2644 16.9674L84.9378 17.7134C84.3922 19.2041 83.2578 19.95 81.5367 19.95ZM92.5567 19.7518C91.5956 19.7518 91.0911 19.259 91.0433 18.2767H90.83C90.7297 18.7788 90.4432 19.2234 90.0289 19.5199C89.6133 19.8066 89.0967 19.95 88.48 19.95C87.6244 19.95 86.9833 19.7294 86.5567 19.287C86.1289 18.8457 85.9156 18.2263 85.9156 17.4311C85.9156 16.5262 86.2178 15.8519 86.8233 15.4106C87.4289 14.9682 88.3011 14.7476 89.4411 14.7476H90.8833V14.0017C90.8833 13.4943 90.7644 13.118 90.5278 12.875C90.3022 12.633 89.9222 12.511 89.3878 12.511C88.9489 12.511 88.58 12.6106 88.2833 12.8089C87.9867 12.997 87.7256 13.2681 87.5 13.6209L86.2356 12.5602C86.58 12.0641 87.0133 11.6665 87.5356 11.3674C88.07 11.0583 88.7467 10.9038 89.5656 10.9038C91.8811 10.9038 93.0389 11.9196 93.0389 13.9524V18.1446H93.8578V19.7518H92.5567ZM89.2989 18.475C89.7378 18.475 90.1122 18.3596 90.4211 18.1278C90.7289 17.8847 90.8833 17.5532 90.8833 17.1332V15.9908H89.5833C88.5867 15.9908 88.0878 16.3492 88.0878 17.0671V17.4311C88.0878 17.7962 88.1945 18.0617 88.4078 18.2263C88.6222 18.3932 88.9189 18.475 89.2989 18.475ZM95.5289 19.7518V11.102H97.6833V12.8738H97.9322C98.04 12.3004 98.2589 11.8636 98.5911 11.5657C98.9356 11.2566 99.38 11.102 99.9267 11.102H100.39V13.1561H99.6778C99 13.1561 98.4967 13.2558 98.1645 13.454C97.8433 13.6534 97.6833 14.0006 97.6833 14.4978V19.7506H95.5278L95.5289 19.7518Z" fill="#36364A" fill-opacity="0.41"/>
</g>
</g>
</g>
<defs>
<clipPath id="clip0_1_134">
<rect width="100" height="28" fill="white" transform="translate(0.390015 0.910034)"/>
</clipPath>
<clipPath id="clip1_1_134">
<rect width="100" height="28" fill="white" transform="translate(0.390015 0.910034)"/>
</clipPath>
<clipPath id="clip2_1_134">
<rect width="100" height="28" fill="white" transform="translate(0.390015 0.910034)"/>
</clipPath>
</defs>
</svg>
