<svg width="65" height="23" viewBox="0 0 65 23" fill="none" xmlns="http://www.w3.org/2000/svg">
<g clip-path="url(#clip0_1_62)">
<g clip-path="url(#clip1_1_62)">
<path fill-rule="evenodd" clip-rule="evenodd" d="M45.1292 17.517C43.1324 17.517 41.6349 16.0887 41.6349 13.8034C41.6349 11.5181 43.1324 10.0898 45.1292 10.0898C47.1973 10.0898 48.6235 11.5181 48.6235 13.8034C48.6235 16.0887 47.1973 17.517 45.1292 17.517ZM52.0466 16.9457V14.3747V1.02002H48.6948V8.8043C47.7678 7.59025 46.1276 7.09034 44.63 7.09034C40.9217 7.09034 38.1405 9.73271 38.1405 13.8748C38.1405 18.3026 40.8504 20.5879 44.5587 20.5879C46.2702 20.5879 47.9104 19.8737 48.7661 18.6597C48.7864 18.8427 48.801 19.0141 48.8147 19.1757C48.849 19.5812 48.8781 19.9243 48.9801 20.2308H52.0466V16.9457ZM17.1033 7.44737V3.51952H20.3837V7.44737H22.8083V10.2326H20.3837V20.2308H17.1033V10.2326V7.44737ZM12.04 16.5886C12.04 17.5169 11.1842 17.874 10.1858 17.874C8.97351 17.874 8.18907 17.3027 8.04644 16.3743L4.97998 16.8742C5.26523 18.9452 6.97675 20.5163 10.1858 20.5163C13.4662 20.5163 15.3204 18.9452 15.3204 16.5886C15.3204 14.7317 14.1081 13.4463 11.7547 12.8035L10.1145 12.375C9.11613 12.0894 8.68826 11.7323 8.68826 11.0895C8.68826 10.3039 9.33007 9.80409 10.3285 9.80409C11.2555 9.80409 12.04 10.3039 12.1113 11.161L15.1065 10.4468C14.7499 8.30437 12.7531 7.09028 10.2571 7.09028C7.11937 7.09028 5.40786 8.87568 5.40786 11.161C5.40786 12.8749 6.40624 14.2318 9.11613 14.946L10.8277 15.3745C11.6121 15.5887 12.04 15.9458 12.04 16.5886ZM26.9444 12.7321H33.0774C32.9347 10.8039 31.7937 9.87554 30.1536 9.87554C28.3707 9.87554 27.301 10.8753 26.9444 12.7321ZM36.5004 15.0175H26.9444C27.1584 16.9457 28.656 17.6598 30.1536 17.6598C31.7225 17.6598 32.6495 16.9457 33.22 15.803L36.0012 16.8742C35.0741 19.0881 32.7921 20.445 30.1536 20.445C26.374 20.445 23.7354 17.8026 23.7354 13.7319C23.7354 9.73271 26.3027 6.9475 30.1536 6.9475C33.9332 6.9475 36.5004 9.58988 36.5004 13.7319V15.0175ZM54.7563 7.4474H58.1081V20.1593H54.7563V7.4474ZM58.0892 4.37754L58.0989 1.02101L61.4506 1.03075L61.4409 4.38728L58.0892 4.37754Z" fill="#36364A" fill-opacity="0.41"/>
</g>
</g>
<defs>
<clipPath id="clip0_1_62">
<rect width="64" height="22" fill="white" transform="translate(0.97998 0.0200195)"/>
</clipPath>
<clipPath id="clip1_1_62">
<rect width="64" height="22" fill="white" transform="translate(0.97998 0.0200195)"/>
</clipPath>
</defs>
</svg>
