<svg width="106" height="23" viewBox="0 0 106 23" fill="none" xmlns="http://www.w3.org/2000/svg">
<g clip-path="url(#clip0_1_50)">
<g clip-path="url(#clip1_1_50)">
<g clip-path="url(#clip2_1_50)">
<path fill-rule="evenodd" clip-rule="evenodd" d="M12.889 0.229955C12.9703 0.242385 13.0467 0.276712 13.1099 0.329221C13.1731 0.38173 13.2206 0.450423 13.2473 0.527871L13.263 0.584704L13.801 3.33287C14.5206 3.60755 15.199 3.97888 15.8175 4.43654L16.0432 4.61071L18.7598 3.68762C18.9348 3.61246 19.1218 3.66654 19.2536 3.81596C20.1877 4.85821 20.9467 6.11587 21.3871 7.43679C21.4202 7.51043 21.4299 7.59238 21.4149 7.67167C21.3999 7.75096 21.361 7.8238 21.3032 7.88045L21.2553 7.91987L19.0997 9.74404C19.1771 10.1519 19.1992 10.5929 19.1992 11.0219C19.1992 11.3674 19.1845 11.7176 19.1393 12.0522L19.0997 12.3006L21.2553 14.1266C21.3301 14.1795 21.3841 14.2566 21.4081 14.3447C21.4322 14.4328 21.4247 14.5264 21.3871 14.6097C20.9476 15.9315 20.1895 17.1874 19.2545 18.2287C19.1366 18.3625 18.9763 18.4203 18.8188 18.3781L18.7598 18.3579L16.0441 17.4339C15.4481 17.9115 14.7821 18.3048 14.0709 18.6036L13.8019 18.7118L13.263 21.4618C13.2444 21.5518 13.1986 21.634 13.1318 21.6974C13.0649 21.7608 12.9802 21.8023 12.889 21.8165C12.1852 21.9449 11.4814 22.02 10.7564 22.02C10.0305 22.02 9.32672 21.9449 8.62292 21.8165C8.54148 21.804 8.46499 21.7697 8.40169 21.7172C8.33839 21.6647 8.29066 21.5961 8.26365 21.5186L8.24891 21.4618L7.71093 18.7118C6.97893 18.438 6.29022 18.0611 5.66587 17.5925L5.46781 17.4339L2.75212 18.3579C2.57709 18.4331 2.39008 18.379 2.25743 18.2287C1.32241 17.1874 0.564262 15.9315 0.12485 14.6097C0.0918724 14.536 0.0822293 14.4541 0.097205 14.3748C0.112181 14.2956 0.151065 14.2227 0.208679 14.166L0.256582 14.1266L2.41127 12.3006C2.33904 11.8783 2.30574 11.4502 2.31178 11.0219C2.31178 10.679 2.3256 10.3279 2.37074 9.99245L2.41127 9.74495L0.25566 7.91987C0.180882 7.86699 0.126869 7.78991 0.102844 7.70181C0.078819 7.6137 0.0862715 7.52003 0.123929 7.43679C0.563341 6.11587 1.32149 4.85821 2.25651 3.81596C2.30746 3.75257 2.3755 3.70493 2.45267 3.67863C2.52983 3.65233 2.61293 3.64846 2.69224 3.66746L2.75212 3.68671L5.46781 4.60979C6.07196 4.12025 6.74559 3.72238 7.46681 3.42912L7.71093 3.33196L8.24891 0.583788C8.26727 0.493673 8.31298 0.411335 8.37986 0.347896C8.44675 0.284454 8.53158 0.242968 8.62292 0.229038C10.0307 -0.05063 11.4802 -0.05063 12.8881 0.229038L12.889 0.229955ZM73.1391 7.59904C73.6826 7.59904 74.1847 7.71637 74.6462 7.95195C75.1185 8.19614 75.5277 8.54562 75.8419 8.97312C76.1772 9.41862 76.4398 9.96312 76.6305 10.6075C76.8212 11.2529 76.916 11.9834 76.916 12.802C76.916 13.5674 76.8083 14.2742 76.5899 14.9223C76.3911 15.5357 76.0814 16.1079 75.6761 16.6108C75.2941 17.0804 74.8141 17.462 74.2694 17.7291C73.7049 18.002 73.0841 18.1401 72.4565 18.1324C71.913 18.1324 71.4579 18.0573 71.0904 17.9069C70.725 17.7584 70.3858 17.5529 70.0854 17.2983V21.2051H66.9717V7.79429H68.8998L68.9947 7.79887C69.1339 7.80628 69.269 7.84887 69.3871 7.92262C69.5221 8.01357 69.62 8.14943 69.6634 8.30579L69.8937 9.05195L70.0476 8.89337C70.2042 8.73846 70.37 8.59545 70.5423 8.46254C71.2849 7.89014 72.1998 7.58568 73.1391 7.59904ZM45.7381 7.95195C45.1306 7.73692 44.4897 7.63078 43.845 7.63845C43.0472 7.63845 42.3324 7.77229 41.6995 8.04087C41.0921 8.29175 40.5419 8.66216 40.0819 9.12987C39.6357 9.5894 39.2873 10.1337 39.0575 10.7304C38.8182 11.3472 38.6973 12.0033 38.701 12.6645C38.701 13.5674 38.8392 14.3594 39.1183 15.0396C39.3956 15.7207 39.7742 16.2899 40.2532 16.7483C40.7323 17.2066 41.2914 17.5513 41.9307 17.7841C42.57 18.016 43.2554 18.1324 43.985 18.1324C44.3406 18.1324 44.7128 18.1077 45.1052 18.0591C45.4967 18.0096 45.8882 17.9216 46.2806 17.7933C46.6721 17.6659 47.0544 17.4899 47.4257 17.2634C47.7444 17.0709 48.0447 16.8271 48.3266 16.5356L48.4657 16.3853L47.562 15.2954C47.434 15.1184 47.247 15.0295 46.9992 15.0295C46.8112 15.0295 46.6325 15.0726 46.4621 15.1579C46.2908 15.2431 46.1028 15.3375 45.8993 15.442C45.6745 15.5553 45.441 15.6506 45.201 15.7271C44.9394 15.8124 44.628 15.8554 44.2669 15.8554C43.5898 15.8554 43.0371 15.6629 42.6087 15.2807C42.2089 14.9232 41.9519 14.3622 41.8377 13.5968L41.8156 13.4299H47.8227C47.9637 13.4299 48.0788 13.4134 48.1691 13.3814C48.2595 13.3488 48.3359 13.2864 48.3856 13.2044C48.446 13.0987 48.4837 12.9817 48.4961 12.8607C48.5164 12.7168 48.5265 12.5307 48.5265 12.3015C48.5265 11.5682 48.4105 10.9119 48.1792 10.3325C47.9661 9.78103 47.6373 9.28105 47.2147 8.86587C46.7933 8.46032 46.2899 8.14877 45.7381 7.95195ZM60.5012 7.63845C61.1462 7.63067 61.7875 7.73682 62.3952 7.95195C62.947 8.1485 63.4504 8.45974 63.8719 8.86495C64.2836 9.26462 64.6051 9.75412 64.8364 10.3325C65.0667 10.9119 65.1827 11.5682 65.1827 12.3015C65.1827 12.5307 65.1735 12.7168 65.1523 12.8607C65.1399 12.9817 65.1023 13.0987 65.0418 13.2044C64.9924 13.2863 64.9163 13.3487 64.8262 13.3814C64.7144 13.4171 64.5973 13.4335 64.4799 13.4299H58.4718L58.4939 13.5968C58.6081 14.3622 58.8651 14.9232 59.2659 15.2807C59.6942 15.6639 60.2469 15.8545 60.924 15.8545C61.2851 15.8545 61.5965 15.8124 61.8572 15.7271C62.0972 15.6509 62.3306 15.5559 62.5555 15.4429C62.76 15.3375 62.9479 15.2431 63.1183 15.1588C63.2887 15.0726 63.4684 15.0304 63.6554 15.0304C63.9041 15.0304 64.0911 15.1184 64.2182 15.2954L65.1229 16.3853L64.9828 16.5356C64.7156 16.8158 64.4131 17.0605 64.0828 17.2634C63.7107 17.4899 63.3293 17.6668 62.9378 17.7942C62.5554 17.9197 62.1617 18.0084 61.7623 18.0591C61.3699 18.1077 60.9977 18.1324 60.6421 18.1324C59.9421 18.1376 59.2467 18.0197 58.5879 17.7841C57.9614 17.5601 57.3895 17.2072 56.9094 16.7483C56.4304 16.2899 56.0527 15.7216 55.7745 15.0405C55.4963 14.3594 55.3572 13.5674 55.3572 12.6645C55.3572 11.9834 55.477 11.339 55.7146 10.7304C55.9445 10.1337 56.2929 9.5894 56.739 9.12987C57.1987 8.66227 57.7486 8.29186 58.3557 8.04087C58.9886 7.77229 59.7034 7.63754 60.5003 7.63754L60.5012 7.63845ZM85.3856 8.00145C84.7361 7.75945 84.0167 7.63845 83.2263 7.63845C82.4285 7.63845 81.7035 7.75945 81.0504 8.00145C80.4217 8.22857 79.8471 8.58282 79.3628 9.04187C78.883 9.50509 78.5097 10.0661 78.2684 10.6864C78.0104 11.3308 77.8815 12.0559 77.8815 12.8607C77.8815 13.6719 78.0104 14.4034 78.2684 15.0552C78.5263 15.706 78.8911 16.2588 79.3628 16.7144C79.8466 17.1762 80.4212 17.5335 81.0504 17.7639C81.7044 18.0096 82.4285 18.1324 83.2263 18.1324C84.0167 18.1324 84.737 18.0096 85.3856 17.7639C86.0107 17.5342 86.5806 17.1766 87.0585 16.7144C87.5237 16.2588 87.8857 15.706 88.1436 15.0552C88.4016 14.4044 88.5305 13.6719 88.5305 12.8607C88.5305 12.0559 88.4016 11.3308 88.1436 10.6864C87.9031 10.0679 87.5332 9.50733 87.0585 9.04187C86.5802 8.58236 86.0102 8.22791 85.3856 8.00145ZM102.254 4.83987V7.81446H104.785V9.89529H102.254V14.9516L102.257 15.0506C102.271 15.2422 102.329 15.4044 102.43 15.5364C102.547 15.6895 102.715 15.7665 102.936 15.7665C103.106 15.7702 103.273 15.7314 103.424 15.6538C103.481 15.6244 103.534 15.5988 103.585 15.5749C103.64 15.5511 103.7 15.5395 103.761 15.541C103.841 15.5374 103.92 15.5599 103.986 15.6052C104.044 15.6474 104.102 15.7143 104.162 15.8059L105.107 17.2488L104.954 17.356C104.583 17.601 104.178 17.7884 103.751 17.9115C103.248 18.0582 102.729 18.1324 102.193 18.1324C101.697 18.1324 101.261 18.0619 100.882 17.9216C100.524 17.7935 100.198 17.5888 99.9276 17.3221C99.6653 17.0563 99.4647 16.7365 99.3399 16.3853C99.2015 15.9909 99.1335 15.5755 99.1391 15.1579V9.8962H98.2547L98.1764 9.89162C98.0523 9.87901 97.9355 9.82731 97.8429 9.74404C97.7296 9.6432 97.6725 9.49379 97.6725 9.2967V8.10962L99.3297 7.79521L99.9433 5.31104L99.9663 5.23587C100.062 4.97187 100.282 4.83987 100.626 4.83987H102.254ZM37.9779 6.30287V3.67204H26.344V6.30287H30.4627V17.9757H33.8583V6.30287H37.9779ZM53.5286 3.27971V17.9757H50.415V3.27971H53.5286ZM97.1493 7.9327C96.8609 7.70995 96.4796 7.59904 96.0042 7.59904C95.4414 7.59904 94.9218 7.76587 94.4465 8.09954C93.9966 8.42384 93.6053 8.82183 93.2894 9.27654L93.1605 9.46354L92.9901 8.51204C92.9681 8.39821 92.9361 8.28654 92.8942 8.17837C92.8612 8.092 92.806 8.01581 92.734 7.95746C92.6565 7.89853 92.5673 7.85666 92.4723 7.83462C92.3817 7.81322 92.2891 7.80094 92.196 7.79795L92.0854 7.79521H90.2384V17.9757H93.3521V11.7314C93.821 10.8807 94.464 10.4554 95.2811 10.4554C95.516 10.4554 95.7104 10.47 95.8642 10.4994C96.018 10.5287 96.1516 10.5443 96.2658 10.5443C96.3994 10.5443 96.5072 10.5168 96.5873 10.4609C96.6574 10.408 96.7075 10.333 96.7292 10.2482L96.7486 10.1712L97.1493 7.9327ZM10.7555 4.58321C7.17387 4.58321 4.27394 7.4652 4.27394 11.02C4.27394 14.5749 7.17572 17.4569 10.7555 17.4569C14.3353 17.4569 17.2371 14.5749 17.2371 11.02C17.2371 7.4652 14.3362 4.58321 10.7555 4.58321ZM71.4367 9.98971C71.621 9.94662 71.8264 9.92554 72.054 9.92554C72.3027 9.92554 72.5265 9.97412 72.7274 10.0722C72.9282 10.1712 73.1014 10.3325 73.2451 10.558C73.3888 10.7844 73.5012 11.0805 73.5813 11.4472C73.6614 11.8139 73.702 12.2649 73.702 12.802C73.702 13.3649 73.6513 13.8424 73.5518 14.2348C73.4505 14.628 73.3123 14.947 73.1345 15.1927C72.9567 15.4374 72.7476 15.6162 72.5063 15.7271C72.2574 15.84 71.9866 15.8969 71.7131 15.8939C71.4119 15.8939 71.1235 15.8435 70.849 15.7418C70.6002 15.6462 70.3745 15.4994 70.1867 15.3109L70.0854 15.2074V10.8871C70.21 10.7396 70.3442 10.6003 70.487 10.47C70.6184 10.351 70.7657 10.2504 70.9246 10.1712C71.0812 10.0924 71.2525 10.0319 71.4367 9.98971ZM83.2263 9.8962C82.4893 9.8962 81.9504 10.1419 81.6086 10.6323C81.2669 11.1227 81.0964 11.8725 81.0964 12.8809C81.0964 13.8883 81.2669 14.639 81.6086 15.1331C81.9495 15.6281 82.4893 15.8747 83.2263 15.8747C83.942 15.8747 84.4699 15.6272 84.808 15.1331C85.146 14.639 85.3146 13.8883 85.3146 12.8809C85.3146 11.8725 85.146 11.1227 84.808 10.6323C84.4699 10.1409 83.942 9.8962 83.2263 9.8962ZM14.8576 10.1254V8.20954H6.6534V10.1254H9.77903V14.727H11.732V10.1254H14.8576ZM43.9049 9.73854C43.3088 9.73854 42.8436 9.90354 42.5083 10.2344C42.1739 10.5644 41.9528 11.0411 41.8451 11.6626H45.7325C45.7331 11.4241 45.7012 11.1867 45.6376 10.9568C45.577 10.7331 45.471 10.5241 45.3263 10.3426C45.1732 10.1558 44.9791 10.0065 44.7588 9.90629C44.5239 9.79445 44.2393 9.73854 43.9049 9.73854ZM59.1655 10.2344C59.4998 9.90445 59.9651 9.73945 60.5611 9.73945C60.8964 9.73945 61.181 9.79446 61.415 9.90537C61.6499 10.0172 61.8388 10.162 61.9834 10.3426C62.1271 10.5223 62.2312 10.7276 62.2948 10.9568C62.3583 11.1859 62.3896 11.4206 62.3896 11.6626H58.5022C58.6091 11.0411 58.8301 10.5654 59.1655 10.2344Z" fill="#36364A" fill-opacity="0.41"/>
</g>
</g>
</g>
<defs>
<clipPath id="clip0_1_50">
<rect width="105" height="22" fill="white" transform="translate(0.0899963 0.0200195)"/>
</clipPath>
<clipPath id="clip1_1_50">
<rect width="105" height="22" fill="white" transform="translate(0.0899963 0.0200195)"/>
</clipPath>
<clipPath id="clip2_1_50">
<rect width="105" height="22" fill="white" transform="translate(0.0899963 0.0200195)"/>
</clipPath>
</defs>
</svg>
