<svg width="108" height="23" viewBox="0 0 108 23" fill="none" xmlns="http://www.w3.org/2000/svg">
<g clip-path="url(#clip0_1_125)">
<g clip-path="url(#clip1_1_125)">
<g clip-path="url(#clip2_1_125)">
<path d="M54.7647 18.591H57.7749L61.186 9.40808H61.2238L64.6156 18.591H67.6645L71.0181 5.25476H68.0457L65.7779 14.4758H65.7401L62.5004 5.25476H59.9284L56.6892 14.4758H56.6509L54.4025 5.25476H51.4107L54.7647 18.591Z" fill="#36364A" fill-opacity="0.41"/>
<path d="M71.8721 18.5911H74.692V13.1994C74.692 11.7324 75.7976 10.7227 77.4359 10.7227C79.0746 10.7227 80.0654 11.6562 80.0654 13.1994V18.5911H82.8858V12.8183C82.8858 10.094 80.9419 8.20784 78.0456 8.20784C76.7119 8.20784 75.5685 8.64604 74.7303 9.44622H74.692V4.68323H71.8721V18.5911Z" fill="#36364A" fill-opacity="0.41"/>
<path d="M89.5905 18.8767C92.9247 18.8767 95.2874 16.5524 95.2874 13.5421C95.2874 10.532 92.9247 8.20764 89.5905 8.20764C86.2748 8.20764 83.8931 10.532 83.8931 13.5421C83.8931 16.5524 86.2748 18.8767 89.5905 18.8767ZM89.5905 16.3999C87.8375 16.3999 86.713 15.1806 86.713 13.5421C86.713 11.9037 87.8375 10.6844 89.5905 10.6844C91.3435 10.6844 92.4675 11.9037 92.4675 13.5421C92.4675 15.1806 91.3435 16.3999 89.5905 16.3999Z" fill="#36364A" fill-opacity="0.41"/>
<path d="M96.3399 22.8776H99.1598V17.8098H99.198C99.846 18.4385 101.104 18.8767 102.361 18.8767C105.353 18.8767 107.582 16.5904 107.582 13.5421C107.582 10.5129 105.334 8.20764 102.342 8.20764C101.046 8.20764 99.8649 8.58866 99.0837 9.38884H99.0455V8.49341H96.3399V22.8776ZM101.923 16.3999C100.36 16.3999 99.1598 15.3902 99.1598 14.1709V12.8944C99.1598 11.7132 100.417 10.7035 101.904 10.7035C103.6 10.7035 104.762 11.8465 104.762 13.5421C104.762 15.2378 103.581 16.3999 101.923 16.3999Z" fill="#36364A" fill-opacity="0.41"/>
<path fill-rule="evenodd" clip-rule="evenodd" d="M45.8218 4.3387C42.0122 0.542259 35.8509 0.547099 32.0471 4.35322L16.6425 19.6995C20.8211 23.3595 27.1518 23.2113 31.0891 19.2715L45.9109 4.44046L45.8218 4.3387ZM16.1812 4.42319C19.9898 0.61222 26.162 0.61222 29.9705 4.42319L30.0863 4.53901L15.807 18.8272L8.79661 11.8124L16.1812 4.42319ZM7.90951 10.9284L0.9151 3.99164C4.74546 0.618101 10.5859 0.76195 14.2448 4.42319L14.3585 4.53689L7.90951 10.9284Z" fill="#36364A" fill-opacity="0.41"/>
</g>
</g>
</g>
<defs>
<clipPath id="clip0_1_125">
<rect width="107" height="22" fill="white" transform="translate(0.690002 0.910034)"/>
</clipPath>
<clipPath id="clip1_1_125">
<rect width="107" height="22" fill="white" transform="translate(0.690002 0.910034)"/>
</clipPath>
<clipPath id="clip2_1_125">
<rect width="107" height="22" fill="white" transform="translate(0.690002 0.910034)"/>
</clipPath>
</defs>
</svg>
