<svg width="21" height="21" viewBox="0 0 21 21" fill="none" xmlns="http://www.w3.org/2000/svg">
<g clip-path="url(#clip0_1_454)">
<g clip-path="url(#clip1_1_454)">
<g clip-path="url(#clip2_1_454)">
<path d="M20.55 0.530273H0.549988V20.5303H20.55V0.530273Z" fill="white"/>
<path d="M9.76472 6.45954C9.55837 6.65185 9.35555 6.84061 9.15275 7.02849C8.21078 7.90284 7.26885 8.77808 6.32599 9.65061C6.10983 9.85096 5.88571 10.0433 5.6144 10.1608C5.29152 10.3006 5.1065 10.2133 5.00244 9.86519C4.85745 9.37817 4.93485 8.92408 5.21504 8.5056C5.45342 8.14947 5.75406 7.85296 6.06269 7.56449C6.55459 7.10506 7.05002 6.65008 7.55171 6.20312C7.77139 6.00725 8.01155 5.82827 8.30507 5.76861C9.1839 5.59144 9.74428 6.43373 9.76564 6.45865L9.76472 6.45954Z" fill="#4779FF"/>
<path d="M5.53632 10.9075C6.07089 10.7534 6.47206 10.4142 6.86254 10.0572C8.10781 8.92106 9.3513 7.78408 10.6019 6.6542C10.8777 6.4049 11.1677 6.16627 11.4745 5.95795C11.865 5.69262 12.2893 5.65433 12.7073 5.90719C12.8585 5.99801 13.0071 6.10395 13.1298 6.2304C13.5559 6.67113 13.9766 7.11897 14.3866 7.57484C14.8225 8.05919 15.2512 8.55068 15.6684 9.05106C15.8116 9.2229 15.929 9.42325 16.026 9.62624C16.2066 10.0038 16.1603 10.3768 15.9406 10.7285C15.744 11.0437 15.4807 11.3019 15.2094 11.5467C14.1474 12.5066 13.0853 13.4664 12.0109 14.4128C11.7227 14.6675 11.4051 14.8954 11.0778 15.0966C10.4614 15.4769 9.84321 15.4296 9.28102 14.9791C8.95371 14.7173 8.64594 14.4244 8.36486 14.1128C7.45937 13.1093 6.57079 12.0916 5.67597 11.0784C5.6306 11.0277 5.58968 10.9734 5.53632 10.9075Z" fill="#4779FF"/>
</g>
</g>
</g>
<defs>
<clipPath id="clip0_1_454">
<rect x="0.549988" y="0.530273" width="20" height="20" rx="10" fill="white"/>
</clipPath>
<clipPath id="clip1_1_454">
<rect width="20" height="20" fill="white" transform="translate(0.549988 0.530273)"/>
</clipPath>
<clipPath id="clip2_1_454">
<rect width="20" height="20" fill="white" transform="translate(0.549988 0.530273)"/>
</clipPath>
</defs>
</svg>
