<svg width="21" height="21" viewBox="0 0 21 21" fill="none" xmlns="http://www.w3.org/2000/svg">
<g clip-path="url(#clip0_1_444)">
<g clip-path="url(#clip1_1_444)">
<g clip-path="url(#clip2_1_444)">
<path d="M20.17 0.530273H0.170044V20.5303H20.17V0.530273Z" fill="#3B2FC9"/>
<path d="M7.73152 10.9968C7.61295 11.1153 7.4647 11.1746 7.28679 11.1746H6.67901H5.80441C5.67098 11.1746 5.5672 11.1302 5.47828 11.0412C5.40416 10.9523 5.34485 10.8485 5.34485 10.7151V8.44703V6.16415C5.34485 6.03072 5.40416 5.92694 5.47828 5.83802C5.5672 5.76389 5.68581 5.70459 5.80441 5.70459H7.16822H8.53203C8.66543 5.70459 8.7692 5.76389 8.85816 5.83802C8.94711 5.92694 8.99158 6.03072 8.99158 6.16415V7.94303V9.46989C8.99158 9.63297 8.93228 9.79602 8.81368 9.8998L8.28003 10.4335L7.73152 10.9968Z" fill="white"/>
<path d="M9.70344 8.09126C9.58481 7.97269 9.52551 7.82443 9.52551 7.66135V7.03875V6.16415C9.52551 6.03072 9.58481 5.92694 9.65894 5.83802C9.74789 5.76389 9.86649 5.70459 9.9851 5.70459H12.2531H14.536C14.6694 5.70459 14.7732 5.76389 14.8622 5.83802C14.9511 5.92694 14.9956 6.03072 14.9956 6.16415V7.52796V8.89176C14.9956 9.02516 14.9363 9.12894 14.8622 9.21789C14.7732 9.30684 14.6694 9.35132 14.536 9.35132H12.7572H11.2154C11.0524 9.35132 10.8893 9.29202 10.7707 9.17342L10.2371 8.63976L9.70344 8.09126Z" fill="white"/>
<path d="M12.6226 10.0924C12.7412 9.97385 12.8894 9.91455 13.0673 9.91455H13.6751H14.5349C14.6683 9.91455 14.7721 9.97385 14.861 10.048C14.95 10.1369 14.9944 10.2407 14.9944 10.3741V12.6421V14.9102C14.9944 15.0437 14.9352 15.1474 14.861 15.2364C14.7721 15.3253 14.6683 15.3698 14.5349 15.3698H13.1711H11.8073C11.6738 15.3698 11.5701 15.3105 11.4811 15.2364C11.3922 15.1474 11.3477 15.0437 11.3477 14.9102V13.1313V11.6045C11.3477 11.4414 11.407 11.2783 11.5256 11.1746L12.0593 10.6409L12.6226 10.0924Z" fill="white"/>
<path d="M10.637 12.9993C10.7556 13.1179 10.8149 13.2662 10.8149 13.4441V14.0519V14.9265C10.8149 15.0599 10.7556 15.1637 10.6814 15.2526C10.5925 15.3415 10.4887 15.386 10.3553 15.386H8.0873H5.80441C5.67098 15.386 5.5672 15.3267 5.47828 15.2526C5.40416 15.1637 5.34485 15.0451 5.34485 14.9265V13.5626V12.1988C5.34485 12.0654 5.40416 11.9616 5.47828 11.8727C5.5672 11.7838 5.67098 11.7393 5.80441 11.7393H7.5833H9.11016C9.27324 11.7393 9.43628 11.7986 9.54006 11.9172L10.0737 12.4508L10.637 12.9993Z" fill="white"/>
</g>
</g>
</g>
<defs>
<clipPath id="clip0_1_444">
<rect x="0.170044" y="0.530273" width="20" height="20" rx="10" fill="white"/>
</clipPath>
<clipPath id="clip1_1_444">
<rect width="20" height="20" fill="white" transform="translate(0.170044 0.530273)"/>
</clipPath>
<clipPath id="clip2_1_444">
<rect width="20" height="20" fill="white" transform="translate(0.170044 0.530273)"/>
</clipPath>
</defs>
</svg>
