<svg width="21" height="21" viewBox="0 0 21 21" fill="none" xmlns="http://www.w3.org/2000/svg">
<g clip-path="url(#clip0_1_437)">
<path d="M20.02 0.530273H0.0200195V20.5303H20.02V0.530273Z" fill="#00A587"/>
<path d="M12.5913 10.562C12.7325 11.6764 12.8636 12.7226 12.9996 13.7678C13.0157 13.893 12.9899 13.9371 12.8505 13.9442C12.011 13.9861 12.0115 13.9895 11.7079 13.2206C11.5816 12.9006 11.4585 12.5794 11.3239 12.2626C11.2943 12.2106 11.2833 12.1501 11.2929 12.0912C11.3024 12.0322 11.3319 11.9781 11.3764 11.9378C11.7736 11.5014 12.1604 11.0532 12.5913 10.562Z" fill="white"/>
<path d="M7.63762 11.4829C7.75797 12.0918 7.8767 12.6641 7.98117 13.239C8.01346 13.4169 8.1586 13.643 8.03444 13.7632C7.92733 13.8667 7.68959 13.7204 7.50682 13.727C7.0213 13.7451 6.7953 13.5212 6.71644 13.0512C6.67013 12.7752 6.64965 12.5841 6.88143 12.3704C7.152 12.0903 7.40457 11.7938 7.63762 11.4829Z" fill="white"/>
<path d="M9.01961 12.5978C9.01961 12.2529 9.01428 11.9081 9.02218 11.5634C9.02526 11.428 8.98707 11.3823 8.84136 11.3775C7.8472 11.3451 6.85323 11.3057 5.85948 11.2594C5.70342 11.2522 5.6418 11.2959 5.60863 11.4483C5.45529 12.1536 5.28126 12.8548 5.13148 13.561C5.08945 13.7592 5.01279 13.8324 4.80269 13.8098C4.56955 13.786 4.33488 13.7807 4.10088 13.7939C3.9246 13.8027 3.89063 13.73 3.8932 13.5785C3.9084 12.5194 3.93088 11.4602 3.92053 10.4014C3.91863 10.0756 4.02888 9.75879 4.2332 9.50288C4.7831 8.7485 5.31282 7.98056 5.84558 7.21453C5.87431 7.16209 5.91955 7.12028 5.97444 7.09539C6.02936 7.07053 6.09094 7.06393 6.14999 7.0766C8.13647 7.28637 10.1238 7.48964 12.1118 7.68631C12.2361 7.70104 12.3548 7.74583 12.4574 7.81675C13.6404 8.57561 14.8212 9.33717 16.0102 10.0867C16.1881 10.1985 16.193 10.2623 16.022 10.3634C15.9852 10.383 15.9523 10.4091 15.925 10.4404C15.5825 10.877 15.181 10.8574 14.6958 10.6638C14.1092 10.4306 13.4908 10.2759 12.8894 10.0776C12.8322 10.0547 12.7701 10.0461 12.7087 10.0524C12.6472 10.0587 12.5884 10.0798 12.5371 10.1139C11.984 10.453 11.4283 10.7879 10.8701 11.1187C10.8198 11.1453 10.7768 11.1836 10.745 11.2303C10.7131 11.277 10.6932 11.3306 10.6871 11.3866C10.5647 12.1146 10.4246 12.8395 10.3121 13.5694C10.2797 13.7785 10.2042 13.8448 9.99361 13.8303C9.72615 13.8147 9.45806 13.8143 9.19056 13.829C9.0319 13.836 8.99129 13.7811 8.9965 13.6318C9.00682 13.2871 8.99971 12.942 8.99971 12.5971L9.01961 12.5978Z" fill="white"/>
</g>
<defs>
<clipPath id="clip0_1_437">
<rect width="20" height="20" fill="white" transform="translate(0.0200195 0.530273)"/>
</clipPath>
</defs>
</svg>
