<svg width="21" height="21" viewBox="0 0 21 21" fill="none" xmlns="http://www.w3.org/2000/svg">
<g clip-path="url(#clip0_1_483)">
<g clip-path="url(#clip1_1_483)">
<g clip-path="url(#clip2_1_483)">
<path d="M20.3 0.530273H0.299988V20.5303H20.3V0.530273Z" fill="#9933FF"/>
<path fill-rule="evenodd" clip-rule="evenodd" d="M13.0104 8.59867L16.4836 7.66486C16.6238 7.62718 16.7088 7.71841 16.672 7.86924L16.1061 10.1816C16.0576 10.3803 15.9269 10.5436 15.7518 10.6256L12.6305 12.0834C13.0684 11.5274 13.3318 10.8135 13.3318 10.0346L13.3312 9.98327L15.5187 9.22022L15.6398 8.76124L13.2836 9.46391C13.2327 9.16425 13.1408 8.87311 13.0104 8.59867ZM7.27339 8.52245L4.08405 7.66486C3.94351 7.62718 3.85856 7.71841 3.89558 7.86924L4.46151 10.1816C4.50999 10.3803 4.64043 10.5436 4.81555 10.6256L7.27339 11.7733V9.99638L5.04866 9.22022L4.92774 8.76124L7.27339 9.46092V8.52245ZM8.92647 7.65641H7.64974V13.7999H8.96678V12.438C9.36342 12.6808 9.81913 12.8092 10.2838 12.809C11.7383 12.809 12.9178 11.567 12.9178 10.0346C12.9178 8.50225 11.7386 7.26025 10.2838 7.26025C9.78704 7.26025 9.32272 7.40505 8.92647 7.65641ZM10.2838 11.4219C11.011 11.4219 11.6008 10.8007 11.6008 10.0346C11.6008 9.26857 11.0112 8.6473 10.2838 8.6473C9.55637 8.6473 8.96678 9.26857 8.96678 10.0346C8.96678 10.8007 9.55637 11.4219 10.2838 11.4219Z" fill="white"/>
</g>
</g>
</g>
<defs>
<clipPath id="clip0_1_483">
<rect x="0.299988" y="0.530273" width="20" height="20" rx="10" fill="white"/>
</clipPath>
<clipPath id="clip1_1_483">
<rect width="20" height="20" fill="white" transform="translate(0.299988 0.530273)"/>
</clipPath>
<clipPath id="clip2_1_483">
<rect width="20" height="20" fill="white" transform="translate(0.299988 0.530273)"/>
</clipPath>
</defs>
</svg>
