<svg width="21" height="21" viewBox="0 0 21 21" fill="none" xmlns="http://www.w3.org/2000/svg">
<path d="M14.4354 12.465H16.1039C17.0244 12.465 17.7706 11.7188 17.7706 10.7983V5.3817C17.7706 4.46122 17.0244 3.71503 16.1039 3.71503H7.56227C6.64179 3.71503 5.8956 4.46122 5.8956 5.3817V7.04836M12.7706 7.04836H4.0206C3.10013 7.04836 2.35394 7.79456 2.35394 8.71503V14.1317C2.35394 15.0521 3.10013 15.7983 4.0206 15.7983H5.06227V17.8817L8.81227 15.7983H12.7706C13.6911 15.7983 14.4373 15.0521 14.4373 14.1317V8.71503C14.4373 7.79456 13.6911 7.04836 12.7706 7.04836Z" stroke="#0F4F57" stroke-opacity="0.7" stroke-width="1.5" stroke-linecap="round" stroke-linejoin="round"/>
</svg>
