<svg width="17" height="17" viewBox="0 0 17 17" fill="none" xmlns="http://www.w3.org/2000/svg">
<path d="M7.47965 12.0298V11.2798C7.06544 11.2798 6.72965 11.6156 6.72965 12.0298H7.47965ZM10.4796 12.0298H11.2297C11.2297 11.6156 10.8939 11.2798 10.4796 11.2798V12.0298ZM10.4796 14.6965V15.4465C10.8939 15.4465 11.2297 15.1107 11.2297 14.6965H10.4796ZM7.47965 14.6965H6.72965C6.72965 15.1107 7.06544 15.4465 7.47965 15.4465V14.6965ZM2.81299 8.61312H2.06299V10.1131H2.81299V8.61312ZM7.47965 12.7798H10.4796V11.2798H7.47965V12.7798ZM9.72965 12.0298V14.6965H11.2297V12.0298H9.72965ZM10.4796 13.9465H7.47965V15.4465H10.4796V13.9465ZM8.22965 14.6965V12.0298H6.72965V14.6965H8.22965ZM15.1463 8.61312H2.81299V10.1131H15.1463V8.61312ZM3.47965 3.77979H14.4797V2.27979H3.47965V3.77979ZM14.3963 3.69646V11.3631H15.8963V3.69646H14.3963ZM14.4797 11.2798H3.47965V12.7798H14.4797V11.2798ZM3.56299 11.3631V3.69646H2.06299V11.3631H3.56299ZM3.47965 11.2798C3.52568 11.2798 3.56299 11.3171 3.56299 11.3631H2.06299C2.06299 12.1455 2.69725 12.7798 3.47965 12.7798V11.2798ZM14.3963 11.3631C14.3963 11.3171 14.4337 11.2798 14.4797 11.2798V12.7798C15.2621 12.7798 15.8963 12.1455 15.8963 11.3631H14.3963ZM14.4797 3.77979C14.4337 3.77979 14.3963 3.74248 14.3963 3.69646H15.8963C15.8963 2.91405 15.2621 2.27979 14.4797 2.27979V3.77979ZM3.47965 2.27979C2.69725 2.27979 2.06299 2.91405 2.06299 3.69646H3.56299C3.56299 3.74248 3.52568 3.77979 3.47965 3.77979V2.27979Z" fill="#4B5563"/>
</svg>
