<svg width="18" height="19" viewBox="0 0 18 19" fill="none" xmlns="http://www.w3.org/2000/svg">
<g clip-path="url(#clip0_1_325)">
<path fill-rule="evenodd" clip-rule="evenodd" d="M8.69745 1.00342C3.89874 1.00342 0.0194397 4.91131 0.0194397 9.74591C0.0194397 13.6104 2.50503 16.8817 5.95322 18.0396C6.38433 18.1265 6.54224 17.8514 6.54224 17.62C6.54224 17.4173 6.52803 16.7225 6.52803 15.9987C4.11402 16.5199 3.61132 14.9565 3.61132 14.9565C3.22338 13.9433 2.64856 13.6829 2.64856 13.6829C1.85845 13.1474 2.70611 13.1474 2.70611 13.1474C3.58255 13.2052 4.04244 14.0448 4.04244 14.0448C4.81816 15.3763 6.06814 15 6.57102 14.7684C6.64279 14.204 6.87282 13.8132 7.11706 13.596C5.19171 13.3934 3.166 12.6408 3.166 9.28265C3.166 8.32734 3.51061 7.54576 4.05665 6.93791C3.9705 6.72084 3.6687 5.82328 4.14298 4.62195C4.14298 4.62195 4.87571 4.39032 6.52785 5.51934C7.23521 5.32797 7.96467 5.23062 8.69745 5.22981C9.43018 5.22981 10.1771 5.33123 10.8669 5.51934C12.5192 4.39032 13.2519 4.62195 13.2519 4.62195C13.7262 5.82328 13.4242 6.72084 13.3381 6.93791C13.8985 7.54576 14.2289 8.32734 14.2289 9.28265C14.2289 12.6408 12.2032 13.3788 10.2634 13.596C10.5797 13.871 10.8525 14.392 10.8525 15.2172C10.8525 16.3895 10.8383 17.3305 10.8383 17.6198C10.8383 17.8514 10.9964 18.1265 11.4273 18.0397C14.8755 16.8816 17.3611 13.6104 17.3611 9.74591C17.3753 4.91131 13.4818 1.00342 8.69745 1.00342Z" fill="#6B7280"/>
</g>
<defs>
<clipPath id="clip0_1_325">
<rect width="18" height="18" fill="white" transform="translate(0 0.529785)"/>
</clipPath>
</defs>
</svg>
