<svg width="21" height="21" viewBox="0 0 21 21" fill="none" xmlns="http://www.w3.org/2000/svg">
<g clip-path="url(#clip0_1_27)">
<path d="M10.9797 7.04828C10.9797 5.66757 12.099 4.54828 13.4797 4.54828H18.688C19.1482 4.54828 19.5213 4.92138 19.5213 5.38162V15.7983C19.5213 16.2585 19.1482 16.6316 18.688 16.6316H13.7105C13.1435 16.6316 12.5877 16.7684 12.1054 17.0665C11.623 17.3646 11.2332 17.7911 10.9797 18.2983M10.9797 7.04828C10.9797 5.66757 9.8604 4.54828 8.47968 4.54828H3.27135C2.81111 4.54828 2.43802 4.92138 2.43802 5.38162V15.7983C2.43802 16.2585 2.81111 16.6316 3.27135 16.6316H8.24885C8.81586 16.6316 9.37167 16.7684 9.854 17.0665C10.3363 17.3646 10.7261 17.7911 10.9797 18.2983M10.9797 7.04828V18.2983" stroke="#0F4F57" stroke-width="1.5" stroke-linecap="round" stroke-linejoin="round"/>
</g>
<defs>
<clipPath id="clip0_1_27">
<rect width="20" height="20" fill="white" transform="translate(0.980011 0.590027)"/>
</clipPath>
</defs>
</svg>
