<svg width="16" height="17" viewBox="0 0 16 17" fill="none" xmlns="http://www.w3.org/2000/svg">
<g clip-path="url(#clip0_1_328)">
<path d="M3.37263 10.644C3.37263 11.574 2.62164 12.3256 1.69245 12.3256C0.763257 12.3256 0.0122681 11.574 0.0122681 10.644C0.0122681 9.71403 0.763257 8.9624 1.69245 8.9624H3.37263V10.644ZM4.21272 10.644C4.21272 9.71403 4.96371 8.9624 5.8929 8.9624C6.82209 8.9624 7.57307 9.71403 7.57307 10.644V14.848C7.57307 15.778 6.82209 16.5296 5.8929 16.5296C4.96371 16.5296 4.21272 15.778 4.21272 14.848V10.644Z" fill="#6B7280"/>
<path d="M5.89336 3.89301C4.96417 3.89301 4.21318 3.14138 4.21318 2.2114C4.21318 1.28141 4.96417 0.529785 5.89336 0.529785C6.82255 0.529785 7.57353 1.28141 7.57353 2.2114V3.89301H5.89336ZM5.89336 4.74655C6.82255 4.74655 7.57353 5.49818 7.57353 6.42815C7.57353 7.35813 6.82255 8.10977 5.89336 8.10977H1.68018C0.750989 8.10977 0 7.35813 0 6.42815C0 5.49818 0.750989 4.74655 1.68018 4.74655H5.89336Z" fill="#6B7280"/>
<path d="M12.6269 6.42815C12.6269 5.49818 13.3779 4.74655 14.3071 4.74655C15.2363 4.74655 15.9873 5.49818 15.9873 6.42815C15.9873 7.35813 15.2363 8.10977 14.3071 8.10977H12.6269V6.42815ZM11.7868 6.42815C11.7868 7.35813 11.0358 8.10977 10.1066 8.10977C9.17744 8.10977 8.42645 7.35813 8.42645 6.42815V2.2114C8.42645 1.28141 9.17744 0.529785 10.1066 0.529785C11.0358 0.529785 11.7868 1.28141 11.7868 2.2114V6.42815Z" fill="#6B7280"/>
<path d="M10.1066 13.1664C11.0358 13.1664 11.7868 13.918 11.7868 14.848C11.7868 15.778 11.0358 16.5296 10.1066 16.5296C9.17744 16.5296 8.42645 15.778 8.42645 14.848V13.1664H10.1066ZM10.1066 12.3256C9.17744 12.3256 8.42645 11.574 8.42645 10.644C8.42645 9.71403 9.17744 8.9624 10.1066 8.9624H14.3198C15.249 8.9624 16 9.71403 16 10.644C16 11.574 15.249 12.3256 14.3198 12.3256H10.1066Z" fill="#6B7280"/>
</g>
<defs>
<clipPath id="clip0_1_328">
<rect width="16" height="16" fill="white" transform="translate(0 0.529785)"/>
</clipPath>
</defs>
</svg>
