<svg width="17" height="17" viewBox="0 0 17 17" fill="none" xmlns="http://www.w3.org/2000/svg">
<path fill-rule="evenodd" clip-rule="evenodd" d="M10.6435 9.82962L7.97686 11.9474V12.9904C7.97686 13.1169 8.11227 13.1973 8.22333 13.1367L10.2092 12.0535C10.477 11.9075 10.6435 11.6269 10.6435 11.3219V9.82962ZM6.97686 11.9131L4.67716 9.61347H3.59989C2.71432 9.61347 2.15162 8.66558 2.57568 7.88814L3.65889 5.90224C3.98016 5.31326 4.59748 4.9468 5.26837 4.9468H7.57819C9.31758 3.09579 11.2599 1.83949 13.7711 1.64097C14.4447 1.58772 15.0026 2.14569 14.9494 2.81925C14.7508 5.33047 13.4945 7.27275 11.6435 9.01213V11.3219C11.6435 11.9928 11.2771 12.6102 10.6881 12.9314L8.7022 14.0146C7.92476 14.4387 6.97686 13.876 6.97686 12.9904V11.9131ZM6.76071 5.9468H5.26837C4.96342 5.9468 4.68282 6.11337 4.53679 6.38109L3.45357 8.36699C3.39299 8.47806 3.47338 8.61347 3.59989 8.61347H4.64286L6.76071 5.9468Z" fill="#1F2937"/>
<path d="M1.64252 13.0764C1.64252 12.0435 2.47991 11.2061 3.51289 11.2061C4.54587 11.2061 5.38326 12.0435 5.38326 13.0764C5.38326 14.1094 4.54587 14.9468 3.51289 14.9468H2.14252C1.86638 14.9468 1.64252 14.723 1.64252 14.4468V13.0764Z" fill="#1F2937"/>
</svg>
