<svg width="21" height="21" viewBox="0 0 21 21" fill="none" xmlns="http://www.w3.org/2000/svg">
<path d="M10.7053 9.54844V4.88177C10.7053 3.7772 11.6008 2.88177 12.7053 2.88177H14.122C15.2266 2.88177 16.122 3.7772 16.122 4.88177V9.54844M10.7053 6.21511H12.7887M4.03868 9.54844V6.09435C4.03868 5.76337 4.12082 5.43755 4.27774 5.14614L5.29947 3.24864C5.42114 3.02268 5.65705 2.88177 5.91368 2.88177C6.17031 2.88177 6.40622 3.02268 6.52789 3.24864L7.54962 5.14614C7.70654 5.43755 7.78868 5.76337 7.78868 6.09435V9.54844M2.37201 9.54844H17.7887V15.4651C17.7887 16.5697 16.8932 17.4651 15.7887 17.4651H4.37201C3.26744 17.4651 2.37201 16.5697 2.37201 15.4651V9.54844Z" stroke="#0F4F57" stroke-opacity="0.7" stroke-width="1.5" stroke-linecap="round" stroke-linejoin="round"/>
</svg>
