<svg width="40" height="41" viewBox="0 0 40 41" fill="none" xmlns="http://www.w3.org/2000/svg">
<path d="M20 10.5801H32C33.1046 10.5801 34 11.4755 34 12.5801V28.5801C34 29.6847 33.1046 30.5801 32 30.5801H20V10.5801Z" fill="url(#paint0_linear_1_178)" fill-opacity="0.32"/>
<path d="M28 14.5801H24C23.7239 14.5801 23.5 14.8039 23.5 15.0801C23.5 15.3562 23.7239 15.5801 24 15.5801H28C28.2761 15.5801 28.5 15.3562 28.5 15.0801C28.5 14.8039 28.2761 14.5801 28 14.5801Z" fill="#071743" fill-opacity="0.25"/>
<path d="M28 25.5801H24C23.7239 25.5801 23.5 25.8039 23.5 26.0801C23.5 26.3562 23.7239 26.5801 24 26.5801H28C28.2761 26.5801 28.5 26.3562 28.5 26.0801C28.5 25.8039 28.2761 25.5801 28 25.5801Z" fill="#071743" fill-opacity="0.25"/>
<path d="M30 17.5801H24C23.7239 17.5801 23.5 17.8039 23.5 18.0801C23.5 18.3562 23.7239 18.5801 24 18.5801H30C30.2761 18.5801 30.5 18.3562 30.5 18.0801C30.5 17.8039 30.2761 17.5801 30 17.5801Z" fill="#071743" fill-opacity="0.25"/>
<path d="M29 20.5801H24C23.7239 20.5801 23.5 20.8039 23.5 21.0801V23.0801C23.5 23.3562 23.7239 23.5801 24 23.5801H29C29.2761 23.5801 29.5 23.3562 29.5 23.0801V21.0801C29.5 20.8039 29.2761 20.5801 29 20.5801Z" fill="#071743" fill-opacity="0.25"/>
<path d="M9 10.5801C9 9.47551 9.89543 8.58008 11 8.58008H17M31 10.5801C31 9.47551 30.1046 8.58008 29 8.58008H20" stroke="#071743" stroke-opacity="0.25" stroke-linecap="round" stroke-linejoin="round"/>
<path d="M31 30.5801C31 31.6847 30.1046 32.5801 29 32.5801H20M9 30.5801C9 31.6847 9.89543 32.5801 11 32.5801H17" stroke="#071743" stroke-opacity="0.25" stroke-linecap="round" stroke-linejoin="round"/>
<path d="M34 15.5801V12.5801C34 11.4755 33.1046 10.5801 32 10.5801H20M20 10.5801V6.58008M20 10.5801V30.5801M34 24.5801V28.5801C34 29.6847 33.1046 30.5801 32 30.5801H20M20 30.5801V34.5801M6 15.5801V12.5801C6 11.4755 6.89543 10.5801 8 10.5801H17M6 24.5801V28.5801C6 29.6847 6.89543 30.5801 8 30.5801H17" stroke="#36364A" stroke-linecap="round" stroke-linejoin="round"/>
<path d="M6 18.5801V21.5801" stroke="#36364A" stroke-linecap="round" stroke-linejoin="round"/>
<path d="M34 18.5801V21.5801" stroke="#36364A" stroke-linecap="round" stroke-linejoin="round"/>
<path d="M12 17.5801L14.6464 20.2265C14.8417 20.4218 14.8417 20.7384 14.6464 20.9337L12 23.5801" stroke="#36364A" stroke-linecap="round" stroke-linejoin="round"/>
<defs>
<linearGradient id="paint0_linear_1_178" x1="20" y1="10.5801" x2="20" y2="30.5801" gradientUnits="userSpaceOnUse">
<stop stop-color="#818498"/>
<stop offset="1" stop-color="#818498" stop-opacity="0"/>
</linearGradient>
</defs>
</svg>
