<svg width="40" height="41" viewBox="0 0 40 41" fill="none" xmlns="http://www.w3.org/2000/svg">
<g clip-path="url(#clip0_1_226)">
<g clip-path="url(#clip1_1_226)">
<path d="M7 28.5801C5.89543 28.5801 5 27.6847 5 26.5801V14.5801C5 13.4755 5.89543 12.5801 7 12.5801" stroke="#071743" stroke-opacity="0.25" stroke-linecap="round" stroke-linejoin="round"/>
<path fill-rule="evenodd" clip-rule="evenodd" d="M7 30.5801V10.5801C7 9.47551 7.89543 8.58008 9 8.58008H22.1716C22.702 8.58008 23.2107 8.79079 23.5858 9.16587L25.0003 10.5804C22.958 10.5971 20.9209 11.3846 19.3627 12.9428C16.2124 16.0931 16.2124 21.2007 19.3627 24.351C21.9735 26.9618 25.9288 27.4089 29 25.6922V30.5801C29 31.6847 28.1046 32.5801 27 32.5801H18H9C7.89543 32.5801 7 31.6847 7 30.5801Z" fill="url(#paint0_linear_1_226)" fill-opacity="0.24"/>
<path d="M11 12.0801C11 11.8039 10.7761 11.5801 10.5 11.5801C10.2239 11.5801 10 11.8039 10 12.0801C10 12.3562 10.2239 12.5801 10.5 12.5801C10.7761 12.5801 11 12.3562 11 12.0801Z" fill="#071743" fill-opacity="0.25"/>
<path d="M14 12.0801C14 11.8039 13.7761 11.5801 13.5 11.5801C13.2239 11.5801 13 11.8039 13 12.0801C13 12.3562 13.2239 12.5801 13.5 12.5801C13.7761 12.5801 14 12.3562 14 12.0801Z" fill="#071743" fill-opacity="0.25"/>
<path d="M17 12.0801C17 11.8039 16.7761 11.5801 16.5 11.5801C16.2239 11.5801 16 11.8039 16 12.0801C16 12.3562 16.2239 12.5801 16.5 12.5801C16.7761 12.5801 17 12.3562 17 12.0801Z" fill="#071743" fill-opacity="0.25"/>
<path d="M11 25.0801C11 24.8039 10.7761 24.5801 10.5 24.5801C10.2239 24.5801 10 24.8039 10 25.0801C10 25.3562 10.2239 25.5801 10.5 25.5801C10.7761 25.5801 11 25.3562 11 25.0801Z" fill="#071743" fill-opacity="0.25"/>
<path d="M13 25.0801C13 24.8039 12.7761 24.5801 12.5 24.5801C12.2239 24.5801 12 24.8039 12 25.0801C12 25.3562 12.2239 25.5801 12.5 25.5801C12.7761 25.5801 13 25.3562 13 25.0801Z" fill="#071743" fill-opacity="0.25"/>
<path d="M17 16.5801H10.5C10.2239 16.5801 10 16.8039 10 17.0801C10 17.3562 10.2239 17.5801 10.5 17.5801H17C17.2761 17.5801 17.5 17.3562 17.5 17.0801C17.5 16.8039 17.2761 16.5801 17 16.5801Z" fill="#071743" fill-opacity="0.25"/>
<path d="M17.5 27.5801H10.5C10.2239 27.5801 10 27.8039 10 28.0801C10 28.3562 10.2239 28.5801 10.5 28.5801H17.5C17.7761 28.5801 18 28.3562 18 28.0801C18 27.8039 17.7761 27.5801 17.5 27.5801Z" fill="#071743" fill-opacity="0.25"/>
<path d="M7 17.5801V20.5801" stroke="#36364A" stroke-linecap="round" stroke-linejoin="round"/>
<path d="M7 14.5801V10.5801C7 9.47551 7.89543 8.58008 9 8.58008H22.1716C22.4602 8.58008 22.7423 8.64245 23 8.75972M7 23.5801V30.5801C7 31.6847 7.89543 32.5801 9 32.5801H27C28.1046 32.5801 29 31.6847 29 30.5801V28.0801M30.7709 24.351C33.9211 21.2007 33.9211 16.0931 30.7709 12.9428C29.1788 11.3508 27.0869 10.5632 25.0003 10.5804C22.958 10.5971 20.9209 11.3846 19.3627 12.9428C16.2124 16.0931 16.2124 21.2007 19.3627 24.351C22.513 27.5012 27.6206 27.5012 30.7709 24.351ZM30.7709 24.351L32.0384 25.6185M32.0384 25.6185C32.7385 24.9185 33.8735 24.9185 34.5736 25.6185L36.475 27.5199C37.175 28.22 37.175 29.355 36.475 30.0551C35.7749 30.7551 34.6399 30.7551 33.9398 30.0551L32.0384 28.1537C31.3384 27.4536 31.3384 26.3186 32.0384 25.6185Z" stroke="#36364A" stroke-linecap="round" stroke-linejoin="round"/>
<path d="M25.0228 13.5801C23.7405 13.5906 22.4615 14.0851 21.4831 15.0634C21.3061 15.2404 21.1449 15.4273 20.9996 15.6222M20 18.5799C20.0038 18.2856 20.033 17.9914 20.0878 17.7012" stroke="#36364A" stroke-linecap="round" stroke-linejoin="round"/>
<path fill-rule="evenodd" clip-rule="evenodd" d="M17.0538 19.5801H10.5C10.2239 19.5801 10 19.804 10 20.0801V22.0801C10 22.3562 10.2239 22.5801 10.5 22.5801H18.0215C17.4968 21.6415 17.1743 20.6203 17.0538 19.5801Z" fill="#36364A"/>
</g>
</g>
<defs>
<linearGradient id="paint0_linear_1_226" x1="18" y1="8.58008" x2="18" y2="34.5801" gradientUnits="userSpaceOnUse">
<stop stop-color="#818498"/>
<stop offset="1" stop-color="#818498" stop-opacity="0"/>
</linearGradient>
<clipPath id="clip0_1_226">
<rect width="40" height="40" fill="white" transform="translate(0 0.580078)"/>
</clipPath>
<clipPath id="clip1_1_226">
<rect width="40" height="40" fill="white" transform="translate(0 0.580078)"/>
</clipPath>
</defs>
</svg>
