<svg width="41" height="41" viewBox="0 0 41 41" fill="none" xmlns="http://www.w3.org/2000/svg">
<g clip-path="url(#clip0_1_262)">
<g clip-path="url(#clip1_1_262)">
<path d="M9.33002 28.5801C9.33002 29.6847 10.2254 30.5801 11.33 30.5801H29.33C30.4346 30.5801 31.33 29.6847 31.33 28.5801M13.33 30.5801C13.33 31.6847 14.2254 32.5801 15.33 32.5801H25.33C26.4346 32.5801 27.33 31.6847 27.33 30.5801" stroke="#071743" stroke-opacity="0.25" stroke-linecap="round" stroke-linejoin="round"/>
<path fill-rule="evenodd" clip-rule="evenodd" d="M32.33 28.5801H20.33H8.33002C7.22545 28.5801 6.33002 27.6847 6.33002 26.5801V22.5801V10.5801C6.33002 9.47551 7.22545 8.58008 8.33002 8.58008H32.33C33.4346 8.58008 34.33 9.47551 34.33 10.5801V22.5801V26.5801C34.33 27.6847 33.4346 28.5801 32.33 28.5801ZM12.1778 18.2165C16.2117 10.368 24.4483 10.3679 28.4822 18.2164C28.5984 18.4425 28.5984 18.7176 28.4822 18.9437C24.4483 26.7921 16.2117 26.7922 12.1778 18.9437C12.0616 18.7177 12.0616 18.4426 12.1778 18.2165Z" fill="url(#paint0_linear_1_262)" fill-opacity="0.32"/>
<path d="M28.33 8.58008H32.33C33.4346 8.58008 34.33 9.47551 34.33 10.5801V22.5801V26.5801C34.33 27.6847 33.4346 28.5801 32.33 28.5801H20.33H8.33002C7.22545 28.5801 6.33002 27.6847 6.33002 26.5801V22.5801V10.5801C6.33002 9.47551 7.22545 8.58008 8.33002 8.58008H12.33M15.33 8.58008H25.33" stroke="#36364A" stroke-linecap="round" stroke-linejoin="round"/>
<path d="M13.83 11.5801H9.83002C9.55387 11.5801 9.33002 11.8039 9.33002 12.0801C9.33002 12.3562 9.55387 12.5801 9.83002 12.5801H13.83C14.1062 12.5801 14.33 12.3562 14.33 12.0801C14.33 11.8039 14.1062 11.5801 13.83 11.5801Z" fill="#071743" fill-opacity="0.25"/>
<path d="M30.83 11.5801H26.83C26.5539 11.5801 26.33 11.8039 26.33 12.0801C26.33 12.3562 26.5539 12.5801 26.83 12.5801H30.83C31.1062 12.5801 31.33 12.3562 31.33 12.0801C31.33 11.8039 31.1062 11.5801 30.83 11.5801Z" fill="#071743" fill-opacity="0.25"/>
<path d="M13.83 24.5801H9.83002C9.55387 24.5801 9.33002 24.8039 9.33002 25.0801C9.33002 25.3562 9.55387 25.5801 9.83002 25.5801H13.83C14.1062 25.5801 14.33 25.3562 14.33 25.0801C14.33 24.8039 14.1062 24.5801 13.83 24.5801Z" fill="#071743" fill-opacity="0.25"/>
<path d="M30.83 24.5801H26.83C26.5539 24.5801 26.33 24.8039 26.33 25.0801C26.33 25.3562 26.5539 25.5801 26.83 25.5801H30.83C31.1062 25.5801 31.33 25.3562 31.33 25.0801C31.33 24.8039 31.1062 24.5801 30.83 24.5801Z" fill="#071743" fill-opacity="0.25"/>
<path d="M10.83 14.5801H9.83002C9.55387 14.5801 9.33002 14.8039 9.33002 15.0801C9.33002 15.3562 9.55387 15.5801 9.83002 15.5801H10.83C11.1062 15.5801 11.33 15.3562 11.33 15.0801C11.33 14.8039 11.1062 14.5801 10.83 14.5801Z" fill="#071743" fill-opacity="0.25"/>
<path d="M30.83 14.5801H29.83C29.5539 14.5801 29.33 14.8039 29.33 15.0801C29.33 15.3562 29.5539 15.5801 29.83 15.5801H30.83C31.1062 15.5801 31.33 15.3562 31.33 15.0801C31.33 14.8039 31.1062 14.5801 30.83 14.5801Z" fill="#071743" fill-opacity="0.25"/>
<path d="M10.83 21.5801H9.83002C9.55387 21.5801 9.33002 21.8039 9.33002 22.0801C9.33002 22.3562 9.55387 22.5801 9.83002 22.5801H10.83C11.1062 22.5801 11.33 22.3562 11.33 22.0801C11.33 21.8039 11.1062 21.5801 10.83 21.5801Z" fill="#071743" fill-opacity="0.25"/>
<path d="M30.83 21.5801H29.83C29.5539 21.5801 29.33 21.8039 29.33 22.0801C29.33 22.3562 29.5539 22.5801 29.83 22.5801H30.83C31.1062 22.5801 31.33 22.3562 31.33 22.0801C31.33 21.8039 31.1062 21.5801 30.83 21.5801Z" fill="#071743" fill-opacity="0.25"/>
<path d="M10.33 18.0801C10.33 17.8039 10.1062 17.5801 9.83002 17.5801C9.55387 17.5801 9.33002 17.8039 9.33002 18.0801C9.33002 18.3562 9.55387 18.5801 9.83002 18.5801C10.1062 18.5801 10.33 18.3562 10.33 18.0801Z" fill="#071743" fill-opacity="0.25"/>
<path d="M31.33 18.0801C31.33 17.8039 31.1062 17.5801 30.83 17.5801C30.5539 17.5801 30.33 17.8039 30.33 18.0801C30.33 18.3562 30.5539 18.5801 30.83 18.5801C31.1062 18.5801 31.33 18.3562 31.33 18.0801Z" fill="#071743" fill-opacity="0.25"/>
<path d="M28.4823 18.2164C24.4483 10.3679 16.2118 10.368 12.1779 18.2165C12.0617 18.4426 12.0617 18.7177 12.1779 18.9437C16.2118 26.7922 24.4483 26.7921 28.4823 18.9437C28.5984 18.7176 28.5984 18.4425 28.4823 18.2164Z" stroke="#36364A" stroke-linecap="round" stroke-linejoin="round"/>
<path d="M21.33 16.5801L22.9764 18.2265C23.1717 18.4218 23.1717 18.7384 22.9764 18.9337L21.33 20.5801" stroke="#36364A" stroke-linecap="round" stroke-linejoin="round"/>
<path d="M19.33 16.5801L17.6836 18.2265C17.4883 18.4218 17.4883 18.7384 17.6836 18.9337L19.33 20.5801" stroke="#36364A" stroke-linecap="round" stroke-linejoin="round"/>
</g>
</g>
<defs>
<linearGradient id="paint0_linear_1_262" x1="20.33" y1="8.58008" x2="20.33" y2="28.5801" gradientUnits="userSpaceOnUse">
<stop stop-color="#818498"/>
<stop offset="1" stop-color="#818498" stop-opacity="0"/>
</linearGradient>
<clipPath id="clip0_1_262">
<rect width="40" height="40" fill="white" transform="translate(0.330017 0.580078)"/>
</clipPath>
<clipPath id="clip1_1_262">
<rect width="40" height="40" fill="white" transform="translate(0.330017 0.580078)"/>
</clipPath>
</defs>
</svg>
